# Blender 3.6.1
# www.blender.org
mtllib Barrel.mtl
o Cylinder.004
v 0.300000 0.800000 -0.050000
v 0.320000 0.800000 -0.050000
v 0.300000 0.756699 -0.025000
v 0.320000 0.756699 -0.025000
v 0.300000 0.756699 0.025000
v 0.320000 0.756699 0.025000
v 0.300000 0.800000 0.050000
v 0.320000 0.800000 0.050000
v 0.300000 0.843301 0.025000
v 0.320000 0.843301 0.025000
v 0.300000 0.843301 -0.025000
v 0.320000 0.843301 -0.025000
v 0.780000 0.785000 -0.000000
v 0.320000 0.785000 -0.000000
v 0.780000 0.762500 0.012990
v 0.320000 0.762500 0.012990
v 0.780000 0.762500 -0.012990
v 0.320000 0.762500 -0.012990
v 0.780000 0.792500 0.012990
v 0.320000 0.792500 0.012990
v 0.780000 0.792500 0.038971
v 0.320000 0.792500 0.038971
v 0.780000 0.770000 0.025981
v 0.320000 0.770000 0.025981
v 0.780000 0.807500 0.012990
v 0.320000 0.807500 0.012990
v 0.780000 0.830000 0.025981
v 0.320000 0.830000 0.025981
v 0.780000 0.807500 0.038971
v 0.320000 0.807500 0.038971
v 0.780000 0.815000 0.000000
v 0.320000 0.815000 0.000000
v 0.780000 0.837500 -0.012990
v 0.320000 0.837500 -0.012990
v 0.780000 0.837500 0.012990
v 0.320000 0.837500 0.012990
v 0.780000 0.807500 -0.012990
v 0.320000 0.807500 -0.012990
v 0.780000 0.807500 -0.038971
v 0.320000 0.807500 -0.038971
v 0.780000 0.830000 -0.025981
v 0.320000 0.830000 -0.025981
v 0.780000 0.792500 -0.012990
v 0.320000 0.792500 -0.012990
v 0.780000 0.770000 -0.025981
v 0.320000 0.770000 -0.025981
v 0.780000 0.792500 -0.038971
v 0.320000 0.792500 -0.038971
v 0.620000 0.800000 -0.050000
v 0.740000 0.800000 -0.050000
v 0.620000 0.756699 -0.025000
v 0.740000 0.756699 -0.025000
v 0.620000 0.756699 0.025000
v 0.740000 0.756699 0.025000
v 0.620000 0.800000 0.050000
v 0.740000 0.800000 0.050000
v 0.620000 0.843301 0.025000
v 0.740000 0.843301 0.025000
v 0.620000 0.843301 -0.025000
v 0.740000 0.843301 -0.025000
vn -0.0000 -0.5000 -0.8660
vn -0.0000 -1.0000 -0.0000
vn -0.0000 -0.5000 0.8660
vn -0.0000 0.5000 0.8660
vn 1.0000 -0.0000 -0.0000
vn -0.0000 1.0000 -0.0000
vn -0.0000 0.5000 -0.8660
vn -1.0000 -0.0000 -0.0000
vt 1.000000 0.500000
vt 1.000000 1.000000
vt 0.833333 1.000000
vt 0.833333 0.500000
vt 0.666667 1.000000
vt 0.666667 0.500000
vt 0.500000 1.000000
vt 0.500000 0.500000
vt 0.333333 1.000000
vt 0.333333 0.500000
vt 0.457846 0.370000
vt 0.250000 0.490000
vt 0.042154 0.370000
vt 0.042154 0.130000
vt 0.250000 0.010000
vt 0.457846 0.130000
vt 0.166667 1.000000
vt 0.166667 0.500000
vt -0.000000 1.000000
vt -0.000000 0.500000
vt 0.750000 0.490000
vt 0.957846 0.370000
vt 0.957846 0.130000
vt 0.750000 0.010000
vt 0.542154 0.130000
vt 0.542154 0.370000
vt 0.333333 1.000000
vt 0.333333 0.500000
vt -0.000000 1.000000
vt -0.000000 0.500000
s 0
usemtl Grey_Metal
f 1/1/1 2/2/1 4/3/1 3/4/1
f 3/4/2 4/3/2 6/5/2 5/6/2
f 5/6/3 6/5/3 8/7/3 7/8/3
f 7/8/4 8/7/4 10/9/4 9/10/4
f 4/11/5 2/12/5 12/13/5 10/14/5 8/15/5 6/16/5
f 9/10/6 10/9/6 12/17/6 11/18/6
f 11/18/7 12/17/7 2/19/7 1/20/7
f 1/21/8 3/22/8 5/23/8 7/24/8 9/25/8 11/26/8
f 49/1/1 50/2/1 52/3/1 51/4/1
f 51/4/2 52/3/2 54/5/2 53/6/2
f 53/6/3 54/5/3 56/7/3 55/8/3
f 55/8/4 56/7/4 58/9/4 57/10/4
f 52/11/5 50/12/5 60/13/5 58/14/5 56/15/5 54/16/5
f 57/10/6 58/9/6 60/17/6 59/18/6
f 59/18/7 60/17/7 50/19/7 49/20/7
f 49/21/8 51/22/8 53/23/8 55/24/8 57/25/8 59/26/8
usemtl Barrel
f 13/1/4 14/2/4 16/5/4 15/6/4
f 15/6/2 16/5/2 18/27/2 17/28/2
f 16/16/8 14/12/8 18/14/8
f 17/28/7 18/27/7 14/29/7 13/30/7
f 13/21/5 15/23/5 17/25/5
f 19/1/6 20/2/6 22/5/6 21/6/6
f 21/6/3 22/5/3 24/27/3 23/28/3
f 22/16/8 20/12/8 24/14/8
f 23/28/1 24/27/1 20/29/1 19/30/1
f 19/21/5 21/23/5 23/25/5
f 25/1/7 26/2/7 28/5/7 27/6/7
f 27/6/4 28/5/4 30/27/4 29/28/4
f 28/16/8 26/12/8 30/14/8
f 29/28/2 30/27/2 26/29/2 25/30/2
f 25/21/5 27/23/5 29/25/5
f 31/1/1 32/2/1 34/5/1 33/6/1
f 33/6/6 34/5/6 36/27/6 35/28/6
f 34/16/8 32/12/8 36/14/8
f 35/28/3 36/27/3 32/29/3 31/30/3
f 31/21/5 33/23/5 35/25/5
f 37/1/2 38/2/2 40/5/2 39/6/2
f 39/6/7 40/5/7 42/27/7 41/28/7
f 40/16/8 38/12/8 42/14/8
f 41/28/4 42/27/4 38/29/4 37/30/4
f 37/21/5 39/23/5 41/25/5
f 43/1/3 44/2/3 46/5/3 45/6/3
f 45/6/1 46/5/1 48/27/1 47/28/1
f 46/16/8 44/12/8 48/14/8
f 47/28/6 48/27/6 44/29/6 43/30/6
f 43/21/5 45/23/5 47/25/5
