# Blender 3.6.1
# www.blender.org
mtllib Yaw.mtl
o Cylinder.001
v -0.000000 0.400000 -0.375000
v -0.000000 0.450000 -0.375000
v 0.265165 0.400000 -0.265165
v 0.265165 0.450000 -0.265165
v 0.375000 0.400000 0.000000
v 0.375000 0.450000 0.000000
v 0.265165 0.400000 0.265165
v 0.265165 0.450000 0.265165
v -0.000000 0.400000 0.375000
v -0.000000 0.450000 0.375000
v -0.265165 0.400000 0.265165
v -0.265165 0.450000 0.265165
v -0.375000 0.400000 0.000000
v -0.375000 0.450000 0.000000
v -0.265165 0.400000 -0.265165
v -0.265165 0.450000 -0.265165
v -0.190000 0.600000 -0.150000
v -0.140000 0.900000 -0.150000
v -0.190000 0.600000 -0.220000
v -0.140000 0.900000 -0.200000
v 0.190000 0.600000 -0.150000
v 0.140000 0.900000 -0.150000
v 0.190000 0.600000 -0.220000
v 0.140000 0.900000 -0.200000
v -0.140000 0.450000 -0.130000
v -0.140000 0.450000 -0.200000
v 0.140000 0.450000 -0.130000
v 0.140000 0.450000 -0.200000
v -0.190000 0.600000 0.150000
v -0.140000 0.900000 0.150000
v -0.190000 0.600000 0.220000
v -0.140000 0.900000 0.200000
v 0.190000 0.600000 0.150000
v 0.140000 0.900000 0.150000
v 0.190000 0.600000 0.220000
v 0.140000 0.900000 0.200000
v -0.140000 0.450000 0.130000
v -0.140000 0.450000 0.200000
v 0.140000 0.450000 0.130000
v 0.140000 0.450000 0.200000
vn -0.0000 -0.0000 -1.0000
vn 0.7071 -0.0000 -0.7071
vn 1.0000 -0.0000 -0.0000
vn 0.7071 -0.0000 0.7071
vn -0.0000 -0.0000 1.0000
vn -0.7071 -0.0000 0.7071
vn -1.0000 -0.0000 -0.0000
vn -0.0000 1.0000 -0.0000
vn -0.7071 -0.0000 -0.7071
vn -0.0000 -1.0000 -0.0000
vn -0.9864 0.1644 -0.0000
vn -0.0000 0.0665 -0.9978
vn 0.9864 0.1644 -0.0000
vn -0.0000 -0.1322 -0.9912
vn -0.9487 -0.3162 -0.0000
vn 0.9487 -0.3162 -0.0000
vn -0.0000 0.1322 0.9912
vn -0.0000 0.0665 0.9978
vn -0.0000 -0.1322 0.9912
vn -0.0000 0.1322 -0.9912
vt 1.000000 0.500000
vt 1.000000 1.000000
vt 0.875000 1.000000
vt 0.875000 0.500000
vt 0.750000 1.000000
vt 0.750000 0.500000
vt 0.625000 1.000000
vt 0.625000 0.500000
vt 0.500000 1.000000
vt 0.500000 0.500000
vt 0.375000 1.000000
vt 0.375000 0.500000
vt 0.250000 1.000000
vt 0.250000 0.500000
vt 0.419706 0.419706
vt 0.250000 0.490000
vt 0.080294 0.419706
vt 0.010000 0.250000
vt 0.080294 0.080294
vt 0.250000 0.010000
vt 0.419706 0.080294
vt 0.490000 0.250000
vt 0.125000 1.000000
vt 0.125000 0.500000
vt 0.000000 1.000000
vt 0.000000 0.500000
vt 0.750000 0.490000
vt 0.919706 0.419706
vt 0.990000 0.250000
vt 0.919706 0.080294
vt 0.750000 0.010000
vt 0.580294 0.080294
vt 0.510000 0.250000
vt 0.580294 0.419706
vt 0.375000 0.000000
vt 0.625000 0.000000
vt 0.625000 0.250000
vt 0.375000 0.250000
vt 0.625000 0.750000
vt 0.375000 0.750000
vt 0.875000 0.750000
vt 0.125000 0.750000
s 1
usemtl Main_hull
f 1/1/1 2/2/1 4/3/2 3/4/2
f 3/4/2 4/3/2 6/5/3 5/6/3
f 5/6/3 6/5/3 8/7/4 7/8/4
f 7/8/4 8/7/4 10/9/5 9/10/5
f 9/10/5 10/9/5 12/11/6 11/12/6
f 11/12/6 12/11/6 14/13/7 13/14/7
f 4/15/8 2/16/8 16/17/8 14/18/8 12/19/8 10/20/8 8/21/8 6/22/8
f 13/14/7 14/13/7 16/23/9 15/24/9
f 15/24/9 16/23/9 2/25/1 1/26/1
f 1/27/10 3/28/10 5/29/10 7/30/10 9/31/10 11/32/10 13/33/10 15/34/10
s 0
usemtl Grey_Metal
f 17/35/11 18/36/11 20/37/11 19/38/11
f 19/38/12 20/37/12 24/8/12 23/12/12
f 23/12/13 24/8/13 22/39/13 21/40/13
f 21/40/5 22/39/5 18/7/5 17/11/5
f 19/38/14 23/12/14 28/12/14 26/38/14
f 24/8/8 20/4/8 18/41/8 22/39/8
f 26/24/10 28/12/10 27/40/10 25/42/10
f 17/35/15 19/38/15 26/38/15 25/35/15
f 23/12/16 21/40/16 27/40/16 28/12/16
f 21/40/17 17/11/17 25/11/17 27/40/17
f 31/38/11 32/37/11 30/36/11 29/35/11
f 35/12/18 36/8/18 32/37/18 31/38/18
f 33/40/13 34/39/13 36/8/13 35/12/13
f 29/11/1 30/7/1 34/39/1 33/40/1
f 38/38/19 40/12/19 35/12/19 31/38/19
f 34/39/8 30/41/8 32/4/8 36/8/8
f 37/42/10 39/40/10 40/12/10 38/24/10
f 37/35/15 38/38/15 31/38/15 29/35/15
f 40/12/16 39/40/16 33/40/16 35/12/16
f 39/40/20 37/11/20 29/11/20 33/40/20
