<svg id="evtk3csIDzj1" xmlns="http://www.w3.org/2000/svg" xmlns:xlink="http://www.w3.org/1999/xlink" viewBox="0 0 1920 1080" shape-rendering="geometricPrecision" text-rendering="geometricPrecision"><ellipse rx="100" ry="100" transform="matrix(2.01762 0 0 2.01762 118.975904 102.710843)" fill="#fff" stroke-width="0"/><ellipse rx="100" ry="100" transform="matrix(2.01762 0 0 2.01762 1862.048193 560.843372)" fill="#fff" stroke-width="0"/><ellipse rx="100" ry="100" transform="matrix(2.01762 0 0 2.01762 320.737904 982.696085)" fill="#fff" stroke-width="0"/><ellipse rx="100" ry="100" transform="matrix(2.01762 0 0 2.01762 1145.941018-57.133848)" fill="#fff" stroke-width="0"/><ellipse rx="100" ry="100" transform="matrix(1.011336 0 0 1.011336 1430.857524 101.1336)" fill="#fff" stroke-width="0"/><ellipse rx="100" ry="100" transform="matrix(1.011336 0 0 1.011336 138.117285 719.029265)" fill="#fff" stroke-width="0"/><ellipse rx="100" ry="100" transform="matrix(.43402 0 0 0.43402 227.852702 455.612395)" fill="#fff" stroke-width="0"/><ellipse rx="100" ry="100" transform="matrix(.43402 0 0 0.43402 898.375251 102.710843)" fill="#fff" stroke-width="0"/><ellipse rx="100" ry="100" transform="matrix(.43402 0 0 0.43402 1003.402 200.216172)" fill="#fff" stroke-width="0"/><ellipse rx="100" ry="100" transform="matrix(.43402 0 0 0.43402 1616.884193 68.224428)" fill="#fff" stroke-width="0"/><ellipse rx="100" ry="100" transform="matrix(.155471 0 0 0.155471 1893.996721 24.073238)" fill="#fff" stroke-width="0"/><ellipse rx="100" ry="100" transform="matrix(.155471 0 0 0.155471 1877.595293 68.224428)" fill="#fff" stroke-width="0"/><ellipse rx="100" ry="100" transform="matrix(.155471 0 0 0.155471 1723.782589 359.081372)" fill="#fff" stroke-width="0"/><ellipse rx="100" ry="100" transform="matrix(.155471 0 0 0.155471 1645.739093 614.186264)" fill="#fff" stroke-width="0"/><ellipse rx="100" ry="100" transform="matrix(.155471 0 0 0.155471 1733.2799 747.058272)" fill="#fff" stroke-width="0"/><ellipse rx="100" ry="100" transform="matrix(.155471 0 0 0.155471 1846.501093 1010.550985)" fill="#fff" stroke-width="0"/><ellipse rx="100" ry="100" transform="matrix(.155471 0 0 0.155471 1446.404624 967.148985)" fill="#fff" stroke-width="0"/><ellipse rx="100" ry="100" transform="matrix(.155471 0 0 0.155471 1003.402 1055.420903)" fill="#fff" stroke-width="0"/><ellipse rx="100" ry="100" transform="matrix(.155471 0 0 0.155471 1169.94922 909.577601)" fill="#fff" stroke-width="0"/><ellipse rx="100" ry="100" transform="matrix(.155471 0 0 0.155471 640.371923 1024.326703)" fill="#fff" stroke-width="0"/><ellipse rx="100" ry="100" transform="matrix(.155471 0 0 0.155471 596.969923 884.595827)" fill="#fff" stroke-width="0"/><ellipse rx="100" ry="100" transform="matrix(.155471 0 0 0.155471 271.254702 747.058272)" fill="#fff" stroke-width="0"/><ellipse rx="100" ry="100" transform="matrix(.155471 0 0 0.155471 107.740755 1055.420903)" fill="#fff" stroke-width="0"/><ellipse rx="100" ry="100" transform="matrix(.155471 0 0 0.155471 21.436585 762.605372)" fill="#fff" stroke-width="0"/><ellipse rx="100" ry="100" transform="matrix(.155471 0 0 0.155471 73.144392 607.191271)" fill="#fff" stroke-width="0"/><ellipse rx="100" ry="100" transform="matrix(.155471 0 0 0.155471 184.450702 396.663295)" fill="#fff" stroke-width="0"/><ellipse rx="100" ry="100" transform="matrix(.155471 0 0 0.155471 297.206357 257.947772)" fill="#fff" stroke-width="0"/><ellipse rx="100" ry="100" transform="matrix(.155471 0 0 0.155471 538.020823 43.761743)" fill="#fff" stroke-width="0"/><ellipse rx="100" ry="100" transform="matrix(.155471 0 0 0.155471 936.814992 17.124343)" fill="#fff" stroke-width="0"/><ellipse rx="100" ry="100" transform="matrix(.155471 0 0 0.155471 921.267892 167.342774)" fill="#fff" stroke-width="0"/><ellipse rx="100" ry="100" transform="matrix(.155471 0 0 0.155471 975.5471 259.165272)" fill="#fff" stroke-width="0"/><ellipse rx="100" ry="100" transform="matrix(.155471 0 0 0.155471 1278.913678 127.173528)" fill="#fff" stroke-width="0"/><ellipse rx="100" ry="100" transform="matrix(.155471 0 0 0.155471 1547.538224 32.671443)" fill="#fff" stroke-width="0"/><ellipse rx="100" ry="100" transform="matrix(.43402 0 0 0.43402 1660.286193 737.532085)" fill="#fff" stroke-width="0"/><ellipse rx="100" ry="100" transform="matrix(.43402 0 0 0.43402 1488.589124 1026.098085)" fill="#fff" stroke-width="0"/><ellipse rx="100" ry="100" transform="matrix(.43402 0 0 0.43402 596.969923 952.979601)" fill="#fff" stroke-width="0"/><ellipse rx="100" ry="100" transform="matrix(.43402 0 0 0.43402 1102.539018 884.595827)" fill="#fff" stroke-width="0"/><ellipse rx="100" ry="100" transform="matrix(1.011336 0 0 1.011336 421.871504 102.710843)" fill="#fff" stroke-width="0"/><ellipse rx="100" ry="100" transform="matrix(1.011336 0 0 1.011336 1818.8664 257.947772)" fill="#fff" stroke-width="0"/><ellipse rx="100" ry="100" transform="matrix(1.011336 0 0 1.011336 1792.863121 895.248001)" fill="#fff" stroke-width="0"/></svg>
