# Blender 3.6.1
# www.blender.org
mtllib untitled.mtl
o Cube
v -2.000000 -1.000000 5.000000
v -2.000000 1.000000 5.000000
v 2.000000 -1.000000 5.000000
v 2.000000 1.000000 5.000000
v -2.000000 -1.000000 7.000000
v -2.000000 1.000000 7.000000
v 2.000000 -1.000000 7.000000
v 2.000000 1.000000 7.000000
v 5.000000 -1.000000 2.000000
v 5.000000 1.000000 2.000000
v 3.535532 -1.000000 6.363962
v 3.535532 1.000000 6.363962
v 6.363960 -1.000000 3.535536
v 6.363960 1.000000 3.535536
v 2.000000 0.800000 5.000000
v 2.000000 -0.800000 5.000000
v 3.369327 0.800000 6.216328
v 2.000000 0.800000 6.783522
v 3.369327 -0.800000 6.216328
v 2.000000 -0.800000 6.783522
vn -0.0000 -0.0000 -1.0000
vn -0.0000 -0.0000 1.0000
vn -1.0000 -0.0000 -0.0000
vn -0.0000 -1.0000 -0.0000
vn -0.0000 1.0000 -0.0000
vn -0.7071 -0.0000 -0.7071
vn 0.7476 -0.0000 -0.6641
vn 0.7071 -0.0000 0.7071
vn 1.0000 -0.0000 -0.0000
vn -0.6641 -0.0000 0.7476
vn 0.3827 -0.0000 0.9239
vt 0.375000 0.000000
vt 0.625000 0.000000
vt 0.625000 0.250000
vt 0.375000 0.250000
vt 0.375000 0.500000
vt 0.625000 0.500000
vt 0.625000 0.750000
vt 0.375000 0.750000
vt 0.625000 1.000000
vt 0.375000 1.000000
vt 0.125000 0.500000
vt 0.125000 0.750000
vt 0.875000 0.500000
vt 0.875000 0.750000
vt 0.000000 0.000000
s 0
f 1/1/1 2/2/1 4/3/1 3/4/1
f 7/5/2 8/6/2 6/7/2 5/8/2
f 5/8/3 6/7/3 2/9/3 1/10/3
f 3/11/4 7/5/4 5/8/4 1/12/4
f 8/6/5 4/13/5 2/14/5 6/7/5
f 3/1/6 4/2/6 10/3/6 9/4/6
f 9/4/7 10/3/7 14/6/7 13/5/7
f 13/5/8 14/6/8 12/7/8 11/8/8
f 9/11/4 13/5/4 11/8/4 3/12/4
f 14/6/5 10/13/5 4/14/5 12/7/5
f 4/15/9 8/15/9 7/15/9 3/15/9
f 12/15/10 4/15/10 3/15/10 11/15/10
f 17/15/11 18/15/11 20/5/11 19/8/11
f 15/15/5 18/15/5 17/15/5
f 19/8/4 20/5/4 16/15/4
o Cube.001
v -2.000000 -1.000000 5.000000
v -2.000000 1.000000 5.000000
v 2.000000 -1.000000 5.000000
v 2.000000 1.000000 5.000000
v -2.000000 -1.000000 7.000000
v -2.000000 1.000000 7.000000
v 2.000000 -1.000000 7.000000
v 2.000000 1.000000 7.000000
v 5.000000 -1.000000 2.000000
v 5.000000 1.000000 2.000000
v 3.535532 -1.000000 6.363962
v 3.535532 1.000000 6.363962
v 6.363960 -1.000000 3.535536
v 6.363960 1.000000 3.535536
v 2.000000 0.800000 5.000000
v 2.000000 -0.800000 5.000000
v 3.369327 0.800000 6.216328
v 2.000000 0.800000 6.783522
v 3.369327 -0.800000 6.216328
v 2.000000 -0.800000 6.783522
v 5.000000 0.800000 2.000000
v 5.000000 -0.800000 2.000000
v 6.216327 0.800000 3.369327
v 6.783521 0.800000 2.000000
v 6.216327 -0.800000 3.369327
v 6.783521 -0.800000 2.000000
v 5.000000 -1.000000 2.000000
v 5.000000 1.000000 2.000000
v 5.000000 -1.000000 -2.000000
v 5.000000 1.000000 -2.000000
v 7.000000 -1.000000 2.000000
v 7.000000 1.000000 2.000000
v 7.000000 -1.000000 -2.000000
v 7.000000 1.000000 -2.000000
v 2.000000 -1.000000 -5.000000
v 2.000000 1.000000 -5.000000
v 6.363963 -1.000000 -3.535531
v 6.363963 1.000000 -3.535531
v 3.535536 -1.000000 -6.363959
v 3.535536 1.000000 -6.363959
v 5.000000 0.800000 -2.000000
v 5.000000 -0.800000 -2.000000
v 6.216329 0.800000 -3.369326
v 6.783522 0.800000 -2.000000
v 6.216329 -0.800000 -3.369326
v 6.783522 -0.800000 -2.000000
v 2.000001 0.800000 -5.000000
v 2.000001 -0.800000 -5.000000
v 3.369327 0.800000 -6.216326
v 2.000001 0.800000 -6.783521
v 3.369327 -0.800000 -6.216326
v 2.000001 -0.800000 -6.783521
v 2.000001 -1.000000 -5.000000
v 2.000001 1.000000 -5.000000
v -1.999999 -1.000000 -5.000000
v -1.999999 1.000000 -5.000000
v 2.000001 -1.000000 -7.000000
v 2.000001 1.000000 -7.000000
v -1.999999 -1.000000 -7.000000
v -1.999999 1.000000 -7.000000
v -5.000000 -1.000000 -2.000001
v -5.000000 1.000000 -2.000001
v -3.535531 -1.000000 -6.363963
v -3.535531 1.000000 -6.363963
v -6.363959 -1.000000 -3.535537
v -6.363959 1.000000 -3.535537
v -1.999999 0.800000 -5.000000
v -1.999999 -0.800000 -5.000000
v -3.369326 0.800000 -6.216329
v -1.999999 0.800000 -6.783522
v -3.369326 -0.800000 -6.216329
v -1.999999 -0.800000 -6.783522
v -4.999999 0.800000 -2.000001
v -4.999999 -0.800000 -2.000001
v -6.216326 0.800000 -3.369328
v -6.783520 0.800000 -2.000001
v -6.216326 -0.800000 -3.369328
v -6.783520 -0.800000 -2.000001
v -5.000000 -1.000000 -2.000000
v -5.000000 1.000000 -2.000000
v -5.000000 -1.000000 2.000000
v -5.000000 1.000000 2.000000
v -7.000000 -1.000000 -2.000000
v -7.000000 1.000000 -2.000000
v -7.000000 -1.000000 2.000000
v -7.000000 1.000000 2.000000
v -2.000000 -1.000000 5.000000
v -2.000000 1.000000 5.000000
v -6.363962 -1.000000 3.535532
v -6.363962 1.000000 3.535532
v -3.535536 -1.000000 6.363960
v -3.535536 1.000000 6.363960
v -5.000000 0.800000 2.000000
v -5.000000 -0.800000 2.000000
v -6.216328 0.800000 3.369327
v -6.783522 0.800000 2.000000
v -6.216328 -0.800000 3.369327
v -6.783522 -0.800000 2.000000
v -2.000000 0.800000 5.000000
v -2.000000 -0.800000 5.000000
v -3.369327 0.800000 6.216327
v -2.000000 0.800000 6.783521
v -3.369327 -0.800000 6.216327
v -2.000000 -0.800000 6.783521
v -0.000000 -0.750000 5.000000
v -0.000000 -0.750000 -5.000000
v 0.530330 -0.530330 5.000000
v 0.530330 -0.530330 -5.000000
v 0.750000 -0.000000 5.000000
v 0.750000 0.000000 -5.000000
v 0.530330 0.530330 5.000000
v 0.530330 0.530330 -5.000000
v -0.000000 0.750000 5.000000
v -0.000000 0.750000 -5.000000
v -0.530330 0.530330 5.000000
v -0.530330 0.530330 -5.000000
v -0.750000 -0.000000 5.000000
v -0.750000 0.000000 -5.000000
v -0.530330 -0.530330 5.000000
v -0.530330 -0.530330 -5.000000
v -5.000000 -0.750000 0.000000
v 5.000000 -0.750000 -0.000000
v -5.000000 -0.530330 0.530330
v 5.000000 -0.530330 0.530330
v -5.000000 -0.000000 0.750000
v 5.000000 0.000000 0.750000
v -5.000000 0.530330 0.530330
v 5.000000 0.530330 0.530330
v -5.000000 0.750000 0.000000
v 5.000000 0.750000 -0.000000
v -5.000000 0.530330 -0.530330
v 5.000000 0.530330 -0.530330
v -5.000000 -0.000000 -0.750000
v 5.000000 0.000000 -0.750000
v -5.000000 -0.530330 -0.530330
v 5.000000 -0.530330 -0.530330
v 0.000000 -2.000000 -1.500000
v 0.000000 1.500000 -1.500000
v 1.060660 -2.000000 -1.060660
v 1.060660 1.500000 -1.060660
v 1.500000 -2.000000 0.000000
v 1.500000 1.500000 0.000000
v 1.060660 -2.000000 1.060660
v 1.060660 1.500000 1.060660
v 0.000000 -2.000000 1.500000
v 0.000000 1.500000 1.500000
v -1.060660 -2.000000 1.060660
v -1.060660 1.500000 1.060660
v -1.500000 -2.000000 0.000000
v -1.500000 1.500000 0.000000
v -1.060660 -2.000000 -1.060660
v -1.060660 1.500000 -1.060660
v 0.000000 -5.000000 -0.750000
v 0.530330 -5.000000 -0.530330
v 0.750000 -5.000000 0.000000
v 0.530330 -5.000000 0.530330
v 0.000000 -5.000000 0.750000
v -0.530330 -5.000000 0.530330
v -0.750000 -5.000000 0.000000
v -0.530330 -5.000000 -0.530330
vn -0.0000 -0.0000 -1.0000
vn -0.0000 -0.0000 1.0000
vn -1.0000 -0.0000 -0.0000
vn -0.0000 -1.0000 -0.0000
vn -0.0000 1.0000 -0.0000
vn -0.7071 -0.0000 -0.7071
vn 0.7476 -0.0000 -0.6641
vn 0.7071 -0.0000 0.7071
vn 1.0000 -0.0000 -0.0000
vn -0.6641 -0.0000 0.7476
vn 0.3827 -0.0000 0.9239
vn -0.9239 -0.0000 -0.3827
vn -0.7071 -0.0000 0.7071
vn -0.6641 -0.0000 -0.7476
vn 0.7071 -0.0000 -0.7071
vn 0.7476 -0.0000 0.6641
vn 0.9239 -0.0000 -0.3827
vn -0.3827 -0.0000 0.9239
vn -0.7476 -0.0000 0.6641
vn 0.6641 -0.0000 -0.7476
vn -0.3827 -0.0000 -0.9239
vn 0.9239 -0.0000 0.3827
vn 0.6641 -0.0000 0.7476
vn -0.7476 -0.0000 -0.6641
vn -0.9239 -0.0000 0.3827
vn 0.3827 -0.0000 -0.9239
vn 0.3827 -0.9239 -0.0000
vn 0.9239 -0.3827 -0.0000
vn 0.9239 0.3827 -0.0000
vn 0.3827 0.9239 -0.0000
vn -0.3827 0.9239 -0.0000
vn -0.9239 0.3827 -0.0000
vn -0.9239 -0.3827 -0.0000
vn -0.3827 -0.9239 -0.0000
vn -0.0000 -0.9239 0.3827
vn -0.0000 -0.3827 0.9239
vn -0.0000 0.3827 0.9239
vn -0.0000 0.9239 0.3827
vn -0.0000 0.9239 -0.3827
vn -0.0000 0.3827 -0.9239
vn -0.0000 -0.3827 -0.9239
vn -0.0000 -0.9239 -0.3827
vn -0.9002 -0.2250 0.3729
vn 0.3729 -0.2250 0.9002
vn -0.9002 -0.2250 -0.3729
vn 0.9002 -0.2250 -0.3729
vn -0.3729 -0.2250 0.9002
vn -0.3729 -0.2250 -0.9002
vn 0.3729 -0.2250 -0.9002
vn 0.9002 -0.2250 0.3729
vt 0.375000 0.000000
vt 0.625000 0.000000
vt 0.625000 0.250000
vt 0.375000 0.250000
vt 0.375000 0.500000
vt 0.625000 0.500000
vt 0.625000 0.750000
vt 0.375000 0.750000
vt 0.625000 1.000000
vt 0.375000 1.000000
vt 0.125000 0.500000
vt 0.125000 0.750000
vt 0.875000 0.500000
vt 0.875000 0.750000
vt 0.000000 0.000000
vt 1.000000 0.500000
vt 1.000000 1.000000
vt 0.875000 1.000000
vt 0.750000 1.000000
vt 0.750000 0.500000
vt 0.500000 1.000000
vt 0.500000 0.500000
vt 0.250000 1.000000
vt 0.250000 0.500000
vt 0.419706 0.419706
vt 0.250000 0.490000
vt 0.080294 0.419706
vt 0.010000 0.250000
vt 0.080294 0.080294
vt 0.250000 0.010000
vt 0.419706 0.080294
vt 0.490000 0.250000
vt 0.125000 1.000000
vt 0.000000 1.000000
vt 0.000000 0.500000
vt 0.750000 0.490000
vt 0.919706 0.419706
vt 0.990000 0.250000
vt 0.919706 0.080294
vt 0.750000 0.010000
vt 0.580294 0.080294
vt 0.510000 0.250000
vt 0.580294 0.419706
s 0
f 21/16/12 22/17/12 24/18/12 23/19/12
f 27/20/13 28/21/13 26/22/13 25/23/13
f 25/23/14 26/22/14 22/24/14 21/25/14
f 23/26/15 27/20/15 25/23/15 21/27/15
f 28/21/16 24/28/16 22/29/16 26/22/16
f 23/16/17 24/17/17 30/18/17 29/19/17
f 29/19/18 30/18/18 34/21/18 33/20/18
f 33/20/19 34/21/19 32/22/19 31/23/19
f 29/26/15 33/20/15 31/23/15 23/27/15
f 34/21/16 30/28/16 24/29/16 32/22/16
f 24/30/20 28/30/20 27/30/20 23/30/20
f 32/30/21 24/30/21 23/30/21 31/30/21
f 37/30/22 38/30/22 40/20/22 39/23/22
f 35/30/16 38/30/16 37/30/16
f 39/23/15 40/20/15 36/30/15
f 43/30/23 44/30/23 46/20/23 45/23/23
f 41/30/15 44/30/15 43/30/15
f 45/23/16 46/20/16 42/30/16
f 47/16/14 48/17/14 50/18/14 49/19/14
f 53/20/20 54/21/20 52/22/20 51/23/20
f 51/23/13 52/22/13 48/24/13 47/25/13
f 49/26/15 53/20/15 51/23/15 47/27/15
f 54/21/16 50/28/16 48/29/16 52/22/16
f 49/16/24 50/17/24 56/18/24 55/19/24
f 55/19/25 56/18/25 60/21/25 59/20/25
f 59/20/26 60/21/26 58/22/26 57/23/26
f 55/26/15 59/20/15 57/23/15 49/27/15
f 60/21/16 56/28/16 50/29/16 58/22/16
f 50/30/12 54/30/12 53/30/12 49/30/12
f 58/30/27 50/30/27 49/30/27 57/30/27
f 63/30/28 64/30/28 66/20/28 65/23/28
f 61/30/16 64/30/16 63/30/16
f 65/23/15 66/20/15 62/30/15
f 69/30/29 70/30/29 72/20/29 71/23/29
f 67/30/15 70/30/15 69/30/15
f 71/23/16 72/20/16 68/30/16
f 73/16/13 74/17/13 76/18/13 75/19/13
f 79/20/12 80/21/12 78/22/12 77/23/12
f 77/23/20 78/22/20 74/24/20 73/25/20
f 75/26/15 79/20/15 77/23/15 73/27/15
f 80/21/16 76/28/16 74/29/16 78/22/16
f 75/16/19 76/17/19 82/18/19 81/19/19
f 81/19/30 82/18/30 86/21/30 85/20/30
f 85/20/17 86/21/17 84/22/17 83/23/17
f 81/26/15 85/20/15 83/23/15 75/27/15
f 86/21/16 82/28/16 76/29/16 84/22/16
f 76/30/14 80/30/14 79/30/14 75/30/14
f 84/30/31 76/30/31 75/30/31 83/30/31
f 89/30/32 90/30/32 92/20/32 91/23/32
f 87/30/16 90/30/16 89/30/16
f 91/23/15 92/20/15 88/30/15
f 95/30/33 96/30/33 98/20/33 97/23/33
f 93/30/15 96/30/15 95/30/15
f 97/23/16 98/20/16 94/30/16
f 99/16/20 100/17/20 102/18/20 101/19/20
f 105/20/14 106/21/14 104/22/14 103/23/14
f 103/23/12 104/22/12 100/24/12 99/25/12
f 101/26/15 105/20/15 103/23/15 99/27/15
f 106/21/16 102/28/16 100/29/16 104/22/16
f 101/16/26 102/17/26 108/18/26 107/19/26
f 107/19/34 108/18/34 112/21/34 111/20/34
f 111/20/24 112/21/24 110/22/24 109/23/24
f 107/26/15 111/20/15 109/23/15 101/27/15
f 112/21/16 108/28/16 102/29/16 110/22/16
f 102/30/13 106/30/13 105/30/13 101/30/13
f 110/30/35 102/30/35 101/30/35 109/30/35
f 115/30/36 116/30/36 118/20/36 117/23/36
f 113/30/16 116/30/16 115/30/16
f 117/23/15 118/20/15 114/30/15
f 121/30/37 122/30/37 124/20/37 123/23/37
f 119/30/15 122/30/15 121/30/15
f 123/23/16 124/20/16 120/30/16
f 125/31/38 126/32/38 128/33/38 127/28/38
f 127/28/39 128/33/39 130/34/39 129/35/39
f 129/35/40 130/34/40 132/24/40 131/21/40
f 131/21/41 132/24/41 134/36/41 133/37/41
f 133/37/42 134/36/42 136/25/42 135/20/42
f 135/20/43 136/25/43 138/38/43 137/39/43
f 128/40/12 126/41/12 140/42/12 138/43/12 136/44/12 134/45/12 132/46/12 130/47/12
f 137/39/44 138/38/44 140/48/44 139/26/44
f 139/26/45 140/48/45 126/49/45 125/50/45
f 125/51/13 127/52/13 129/53/13 131/54/13 133/55/13 135/56/13 137/57/13 139/58/13
f 141/31/46 142/32/46 144/33/46 143/28/46
f 143/28/47 144/33/47 146/34/47 145/35/47
f 145/35/48 146/34/48 148/24/48 147/21/48
f 147/21/49 148/24/49 150/36/49 149/37/49
f 149/37/50 150/36/50 152/25/50 151/20/50
f 151/20/51 152/25/51 154/38/51 153/39/51
f 144/40/20 142/41/20 156/42/20 154/43/20 152/44/20 150/45/20 148/46/20 146/47/20
f 153/39/52 154/38/52 156/48/52 155/26/52
f 155/26/53 156/48/53 142/49/53 141/50/53
f 141/51/14 143/52/14 145/53/14 147/54/14 149/55/14 151/56/14 153/57/14 155/58/14
f 157/31/37 158/32/37 160/33/37 159/28/37
f 159/28/28 160/33/28 162/34/28 161/35/28
f 161/35/33 162/34/33 164/24/33 163/21/33
f 163/21/22 164/24/22 166/36/22 165/37/22
f 165/37/29 166/36/29 168/25/29 167/20/29
f 167/20/36 168/25/36 170/38/36 169/39/36
f 160/40/16 158/41/16 172/42/16 170/43/16 168/44/16 166/45/16 164/46/16 162/47/16
f 169/39/23 170/38/23 172/48/23 171/26/23
f 171/26/32 172/48/32 158/49/32 157/50/32
f 167/20/54 169/39/54 179/39/54 178/20/54
f 163/21/55 165/37/55 177/37/55 176/21/55
f 169/39/56 171/26/56 180/26/56 179/39/56
f 159/28/57 161/35/57 175/35/57 174/28/57
f 165/37/58 167/20/58 178/20/58 177/37/58
f 171/26/59 157/50/59 173/50/59 180/26/59
f 157/31/60 159/28/60 174/28/60 173/31/60
f 161/35/61 163/21/61 176/21/61 175/35/61
f 173/50/15 174/28/15 175/35/15 176/21/15 177/37/15 178/20/15 179/39/15 180/26/15
