# Blender 3.6.1
# www.blender.org
mtllib Asteroid6.mtl
o rock.020
v -2.275933 -0.218149 -0.719130
v -2.249060 -0.284277 -1.278052
v -2.357260 0.434066 -1.397630
v -1.597514 0.423397 -0.581268
v -1.577453 0.428360 -1.438590
v -1.655941 -0.317262 -1.343958
v -1.708462 -0.287571 -0.759327
v -2.007528 0.498670 -0.986445
v -2.335388 -0.358799 -1.039550
v -2.369886 0.027609 -1.029847
v -1.985716 0.046841 -0.537952
v -1.983894 0.498035 -1.498331
v -1.978238 -0.333063 -1.333962
v -1.959347 -0.349518 -0.687403
v -1.612917 -0.386536 -1.021148
v -1.577727 0.426638 -1.027462
v -2.292495 -0.023614 -1.333845
v -1.663111 -0.020532 -0.696472
v -1.588475 0.025610 -1.410561
v -2.135755 0.173725 -0.850857
v -1.857575 -0.119583 -0.591561
v -1.984022 -0.429002 -1.012785
v -1.841511 0.493633 -1.170350
v -2.397310 -0.134234 -1.147690
v -1.974098 0.017953 -1.409577
v -1.590599 0.014170 -1.032227
v -2.191679 0.464499 -1.207168
v -1.788020 0.444178 -0.790728
v -2.337212 -0.328910 -0.864514
v -2.285688 -0.311010 -1.182491
v -2.362901 -0.116436 -0.849891
v -2.351605 0.211191 -1.213375
v -2.146293 -0.115183 -0.613460
v -1.786840 0.229367 -0.554229
v -2.185796 0.466017 -1.453945
v -1.771993 0.453649 -1.453683
v -2.142851 -0.319682 -1.316752
v -1.802580 -0.335035 -1.344220
v -2.126671 -0.328166 -0.673429
v -1.817250 -0.304496 -0.739487
v -1.643405 -0.348087 -1.197747
v -1.666866 -0.335480 -0.866614
v -1.571687 0.433724 -0.801597
v -1.542420 0.455678 -1.245688
v -2.279950 -0.190497 -1.314739
v -2.307266 0.181343 -1.349632
v -1.650182 0.180838 -0.664753
v -1.663780 -0.189884 -0.712081
v -1.569779 0.233920 -1.436012
v -1.615873 -0.162732 -1.379253
v -2.079989 0.126009 -0.712056
v -2.081006 0.304080 -0.909874
v -2.246154 0.105143 -0.934304
v -1.908010 -0.221656 -0.618519
v -1.747086 -0.080675 -0.597807
v -1.904023 -0.061198 -0.543616
v -2.163552 -0.387179 -1.015106
v -1.982551 -0.396776 -1.194841
v -1.794724 -0.451463 -1.017562
v -1.984069 -0.450881 -0.828232
v -1.907152 0.502483 -1.095167
v -1.711242 0.478874 -1.104007
v -1.901579 0.538092 -1.300026
v -2.386893 -0.064648 -1.096855
v -2.362672 -0.083637 -1.237143
v -2.378859 -0.232652 -1.094228
v -2.161613 0.004890 -1.404517
v -1.978948 0.240160 -1.446672
v -1.765882 0.022087 -1.417079
v -1.974808 -0.180598 -1.375015
v -1.622106 0.006774 -0.845073
v -1.593336 -0.188231 -1.029428
v -1.566992 0.016933 -1.236834
v -1.576926 0.231600 -1.026541
v -2.212568 -0.015414 -0.774509
v -1.926336 0.273023 -0.741991
v -2.241609 0.277414 -1.070399
v -2.032198 -0.202433 -0.569273
v -1.786095 -0.201308 -0.664976
v -1.758157 0.068719 -0.572983
v -2.172552 -0.421641 -0.826873
v -2.156237 -0.370668 -1.189156
v -1.802032 -0.399559 -1.194972
v -1.807885 -0.403203 -0.853137
v -2.051222 0.505623 -1.267239
v -1.739593 0.455348 -0.941043
v -1.729947 0.485401 -1.280683
v -2.391168 -0.195546 -0.970772
v -2.359189 0.067590 -1.229390
v -2.353484 -0.220102 -1.217633
v -2.145035 -0.179551 -1.352224
v -2.175013 0.225222 -1.432136
v -1.764529 0.240631 -1.446589
v -1.782507 -0.176147 -1.390088
v -1.606771 0.222490 -0.822384
v -1.620625 -0.184320 -0.856178
v -1.596085 -0.179969 -1.217762
v -1.544372 0.233834 -1.242954
vn -0.6820 0.3833 0.6228
vn -0.6970 0.4086 0.5893
vn -0.6963 0.4576 0.5529
vn -0.6785 0.4768 0.5589
vn -0.6121 0.5514 0.5668
vn -0.6357 0.5427 0.5490
vn -0.6589 0.5307 0.5331
vn -0.7037 0.5004 0.5044
vn -0.7172 0.5025 0.4827
vn -0.5551 0.6144 0.5608
vn -0.5429 0.5791 0.6082
vn -0.5438 0.5992 0.5876
vn -0.5430 0.6260 0.5597
vn -0.6055 0.5252 0.5979
vn -0.6133 0.5365 0.5796
vn -0.7456 0.4589 0.4832
vn -0.7502 0.4608 0.4742
vn -0.7158 0.4823 0.5050
vn -0.7161 0.4834 0.5036
vn -0.5293 -0.4677 0.7078
vn -0.2958 -0.6052 0.7390
vn -0.3708 -0.1683 0.9133
vn -0.4012 -0.1956 0.8949
vn 0.1784 -0.7118 0.6794
vn 0.2858 -0.5241 0.8023
vn 0.1745 -0.5292 0.8303
vn 0.3026 -0.3852 0.8718
vn 0.1067 -0.1861 0.9767
vn -0.0380 -0.0485 0.9981
vn 0.3139 -0.6674 0.6753
vn 0.4852 -0.4268 0.7632
vn 0.4020 -0.4915 0.7726
vn 0.3536 -0.6686 0.6541
vn 0.8642 -0.1221 0.4881
vn 0.5073 -0.2775 0.8159
vn 0.5595 -0.2348 0.7949
vn 0.4421 -0.1729 0.8802
vn 0.4669 -0.1309 0.8746
vn 0.8477 -0.1872 0.4964
vn -0.5408 -0.5914 0.5981
vn -0.3488 -0.7179 0.6024
vn -0.3350 -0.9420 -0.0218
vn -0.2997 -0.9453 -0.1289
vn -0.2453 -0.9602 -0.1335
vn -0.2568 -0.9621 -0.0918
vn -0.0933 -0.9895 -0.1102
vn -0.0639 -0.9970 -0.0433
vn 0.1173 -0.8062 0.5798
vn -0.5495 -0.7466 -0.3751
vn -0.2504 -0.9239 -0.2894
vn -0.5340 -0.7078 -0.4624
vn -0.2528 -0.8832 -0.3951
vn -0.0757 -0.9118 -0.4035
vn -0.1046 -0.9498 -0.2948
vn 0.1060 -0.9463 -0.3053
vn 0.1827 -0.9831 -0.0153
vn 0.0960 -0.9284 -0.3591
vn 0.2080 -0.9281 -0.3087
vn 0.2593 -0.9221 -0.2873
vn 0.3074 -0.9136 -0.2660
vn 0.2869 -0.8734 0.3936
vn 0.3721 -0.8611 0.3464
vn 0.3571 -0.8197 0.4477
vn -0.2279 0.9737 0.0006
vn -0.1973 0.9801 0.0194
vn -0.1607 0.9869 0.0157
vn -0.2172 0.9756 -0.0335
vn -0.0020 0.9956 0.0941
vn 0.0194 0.9933 0.1139
vn 0.1030 0.9860 0.1312
vn 0.0730 0.9964 -0.0442
vn -0.0231 0.9865 -0.1621
vn 0.0516 0.9963 0.0681
vn 0.0947 0.9935 0.0639
vn 0.1404 0.9859 0.0911
vn 0.0815 0.9924 0.0919
vn 0.2065 0.9760 0.0688
vn 0.1803 0.9790 0.0951
vn 0.1644 0.9678 -0.1909
vn 0.2339 0.9421 -0.2401
vn 0.2071 0.9763 -0.0636
vn 0.1948 0.9804 -0.0284
vn -0.9052 -0.1371 0.4022
vn -0.9539 -0.0347 0.2981
vn -0.9834 -0.1105 0.1442
vn -0.9399 -0.2197 0.2614
vn -0.9919 0.1202 0.0412
vn -0.9965 0.0812 -0.0197
vn -0.9819 -0.0703 -0.1760
vn -0.9384 -0.3093 -0.1542
vn -0.9018 -0.4186 -0.1073
vn -0.9512 -0.1246 -0.2822
vn -0.9332 -0.1031 -0.3443
vn -0.9628 0.0238 -0.2692
vn -0.9748 -0.0592 -0.2152
vn -0.8287 -0.0718 -0.5550
vn -0.9020 -0.0514 -0.4288
vn -0.8062 -0.3701 -0.4616
vn -0.7341 -0.3105 -0.6038
vn -0.3148 -0.3202 -0.8935
vn -0.3286 -0.2661 -0.9062
vn -0.2119 -0.2522 -0.9442
vn -0.2120 -0.2835 -0.9352
vn -0.4019 -0.1730 -0.8992
vn -0.2397 -0.1764 -0.9547
vn -0.0438 -0.1667 -0.9850
vn -0.0774 -0.2231 -0.9717
vn -0.0950 -0.2573 -0.9617
vn -0.4317 -0.1440 -0.8905
vn -0.2530 -0.1524 -0.9554
vn -0.3729 -0.1748 -0.9113
vn -0.2408 -0.1618 -0.9570
vn -0.0217 -0.1360 -0.9905
vn -0.0238 -0.1417 -0.9896
vn 0.0461 -0.1043 -0.9935
vn 0.0100 -0.1466 -0.9891
vn 0.0795 -0.0776 -0.9938
vn 0.0640 -0.0213 -0.9977
vn 0.0542 -0.0761 -0.9956
vn 0.0503 -0.1414 -0.9887
vn 0.0012 -0.2087 -0.9780
vn -0.0096 -0.2631 -0.9647
vn 0.0586 -0.1994 -0.9782
vn 0.0601 -0.2610 -0.9635
vn 0.9644 -0.2201 0.1464
vn 0.9813 -0.1244 0.1467
vn 0.9821 -0.1575 0.1033
vn 0.9770 -0.0512 0.2071
vn 0.9905 -0.0611 0.1231
vn 0.9906 -0.0619 0.1222
vn 0.9934 -0.0427 0.1063
vn 0.9296 -0.1900 0.3158
vn 0.9528 -0.1478 0.2653
vn 0.8497 -0.3922 0.3525
vn 0.9147 -0.2678 0.3026
vn 0.9793 -0.1869 0.0778
vn 0.9894 -0.1151 0.0887
vn 0.9805 -0.1787 -0.0819
vn 0.9939 -0.1086 -0.0214
vn 0.9660 -0.2261 -0.1256
vn 0.9487 -0.2816 -0.1436
vn 0.9677 -0.2112 -0.1376
vn 0.9829 -0.1300 -0.1305
vn 0.9990 -0.0447 -0.0003
vn 1.0000 0.0052 -0.0016
vn 0.9887 -0.0445 -0.1429
vn 0.9878 0.0116 -0.1555
s 1
usemtl Asteroid
f 1//1 33//2 75//3 31//4
f 33//2 11//5 51//6 75//3
f 75//3 51//6 20//7 53//8
f 31//4 75//3 53//8 10//9
f 4//10 28//11 76//12 34//13
f 28//11 8//14 52//15 76//12
f 76//12 52//15 20//7 51//6
f 34//13 76//12 51//6 11//5
f 3//16 32//17 77//18 27//19
f 32//17 10//9 53//8 77//18
f 77//18 53//8 20//7 52//15
f 27//19 77//18 52//15 8//14
f 1//20 39//21 78//22 33//23
f 39//21 14//24 54//25 78//26
f 78//26 54//25 21//27 56//28
f 33//23 78//22 56//28 11//29
f 7//30 48//31 79//32 40//33
f 48//31 18//34 55//35 79//32
f 79//32 55//35 21//27 54//25
f 40//33 79//32 54//25 14//24
f 4//36 34//37 80//38 47//39
f 34//37 11//29 56//28 80//38
f 80//38 56//28 21//27 55//35
f 47//39 80//38 55//35 18//34
f 1//20 29//40 81//41 39//21
f 29//42 9//43 57//44 81//45
f 81//45 57//44 22//46 60//47
f 39//21 81//41 60//48 14//24
f 9//43 30//49 82//50 57//44
f 30//49 2//51 37//52 82//50
f 82//50 37//52 13//53 58//54
f 57//44 82//50 58//54 22//46
f 22//46 58//54 83//55 59//56
f 58//54 13//53 38//57 83//55
f 83//55 38//57 6//58 41//59
f 59//56 83//55 41//59 15//60
f 14//24 60//48 84//61 40//33
f 60//47 22//46 59//56 84//61
f 84//61 59//56 15//62 42//63
f 40//33 84//61 42//63 7//30
f 3//64 27//65 85//66 35//67
f 27//65 8//68 61//69 85//66
f 85//66 61//69 23//70 63//71
f 35//67 85//66 63//71 12//72
f 4//73 43//74 86//75 28//76
f 43//74 16//77 62//78 86//75
f 86//75 62//78 23//70 61//69
f 28//76 86//75 61//69 8//68
f 5//79 36//80 87//81 44//82
f 36//80 12//72 63//71 87//81
f 87//81 63//71 23//70 62//78
f 44//82 87//81 62//78 16//77
f 1//83 31//84 88//85 29//86
f 31//84 10//87 64//88 88//85
f 88//85 64//88 24//89 66//90
f 29//86 88//85 66//90 9//91
f 3//92 46//93 89//94 32//95
f 46//93 17//96 65//97 89//94
f 89//94 65//97 24//89 64//88
f 32//95 89//94 64//88 10//87
f 2//51 30//49 90//98 45//99
f 30//49 9//91 66//90 90//98
f 90//98 66//90 24//89 65//97
f 45//99 90//98 65//97 17//96
f 2//100 45//101 91//102 37//103
f 45//101 17//104 67//105 91//102
f 91//102 67//105 25//106 70//107
f 37//103 91//102 70//107 13//108
f 17//104 46//109 92//110 67//105
f 46//109 3//111 35//112 92//110
f 92//110 35//112 12//113 68//114
f 67//105 92//110 68//114 25//106
f 25//106 68//114 93//115 69//116
f 68//114 12//113 36//117 93//115
f 93//115 36//117 5//118 49//119
f 69//116 93//115 49//119 19//120
f 13//108 70//107 94//121 38//122
f 70//107 25//106 69//116 94//121
f 94//121 69//116 19//120 50//123
f 38//122 94//121 50//123 6//124
f 4//125 47//39 95//126 43//127
f 47//39 18//34 71//128 95//126
f 95//126 71//128 26//129 74//130
f 43//127 95//126 74//130 16//131
f 18//34 48//132 96//133 71//128
f 48//132 7//134 42//135 96//133
f 96//133 42//135 15//136 72//137
f 71//128 96//133 72//137 26//129
f 26//129 72//137 97//138 73//139
f 72//137 15//136 41//140 97//138
f 97//138 41//140 6//141 50//142
f 73//139 97//138 50//142 19//143
f 16//131 74//130 98//144 44//145
f 74//130 26//129 73//139 98//144
f 98//144 73//139 19//143 49//146
f 44//145 98//144 49//146 5//147
