# Blender 3.6.1
# www.blender.org
mtllib Asteroid1.mtl
o rock.001
v -1.435395 -0.348803 1.256773
v -1.287457 -0.414161 0.669393
v -1.327445 0.294339 0.839891
v -1.265193 0.362429 1.474886
v -0.825100 -0.313840 1.373927
v -0.660573 -0.330550 0.797810
v -0.826182 0.309353 0.639823
v -0.720069 0.298546 1.162812
v -1.495655 -0.499090 0.944950
v -1.347445 -0.005390 1.005319
v -1.356435 0.389598 1.103774
v -1.018377 -0.001241 1.603100
v -0.984912 -0.428375 0.624475
v -1.032115 -0.025918 0.637250
v -0.685301 0.003672 1.001052
v -1.104973 0.369108 0.683399
v -0.722566 0.343177 0.921594
v -1.129583 -0.468549 1.451868
v -0.620963 -0.414675 1.121146
v -0.893006 0.487453 1.449227
v -1.233686 -0.019083 0.801413
v -0.810365 -0.016239 0.773027
v -0.767381 0.017723 1.255977
v -1.269520 0.000461 1.269123
v -1.022380 -0.567271 1.001446
v -1.006803 0.602739 1.000483
v -1.449006 -0.435110 1.114529
v -1.394833 -0.457341 0.780308
v -1.447980 -0.162413 1.145536
v -1.328579 0.161062 0.909808
v -1.334973 0.345106 0.944528
v -1.334685 0.390911 1.286863
v -1.164172 0.180234 1.521573
v -0.877736 -0.174682 1.501036
v -1.159776 -0.414505 0.643310
v -0.791689 -0.410269 0.665036
v -1.171759 -0.229261 0.638976
v -0.916077 0.154497 0.653967
v -0.626021 -0.172510 0.883179
v -0.710756 0.169395 1.093037
v -1.233823 0.332810 0.764742
v -0.952772 0.379046 0.621692
v -0.727888 0.358667 0.748251
v -0.715051 0.323376 1.063103
v -1.291827 -0.407802 1.362931
v -0.941743 -0.399125 1.397650
v -0.735458 -0.356730 1.263668
v -0.606253 -0.400084 0.940482
v -1.093426 0.491425 1.502028
v -0.777409 0.385408 1.298760
v -1.298026 -0.012435 0.902416
v -1.161629 0.169955 0.736324
v -1.157842 -0.019186 0.686434
v -1.382123 -0.212707 0.848364
v -0.917526 -0.023215 0.697674
v -0.715584 0.170419 0.836773
v -0.705384 -0.005369 0.867399
v -0.891688 -0.213986 0.687277
v -0.717759 0.012404 1.121268
v -0.833191 0.204997 1.357257
v -0.838576 0.026953 1.410901
v -0.670944 -0.169585 1.193005
v -1.176311 -0.012920 1.389131
v -1.338456 0.183997 1.187191
v -1.344016 0.005866 1.141153
v -1.216653 -0.194752 1.385458
v -1.226265 -0.534027 0.977068
v -1.012699 -0.482313 0.809853
v -0.796590 -0.586209 1.050038
v -1.045656 -0.586770 1.223253
v -0.972512 0.574588 1.207181
v -0.831523 0.474960 0.969628
v -1.049540 0.517387 0.812495
v -1.204179 0.522305 1.044972
v -1.437085 -0.192763 0.983475
v -1.248184 0.164895 0.829432
v -1.057443 0.173261 0.628399
v -1.282634 -0.225336 0.728766
v -1.026696 -0.225040 0.612698
v -0.811200 0.162025 0.730725
v -0.692251 0.169540 0.977519
v -0.762733 -0.190333 0.768462
v -0.652250 -0.175019 1.039942
v -0.762117 0.187589 1.210534
v -0.929491 0.227948 1.521006
v -0.733840 -0.162164 1.344794
v -1.110802 -0.234128 1.522122
v -1.260549 0.175112 1.326916
v -1.333389 0.175611 1.031186
v -1.332616 -0.169771 1.280900
v -1.247937 -0.555421 1.190597
v -1.201428 -0.471072 0.789154
v -0.804176 -0.507135 0.854001
v -0.856335 -0.509443 1.237329
v -1.195497 0.605020 1.256056
v -0.796891 0.465748 1.140753
v -0.860977 0.503645 0.776803
v -1.213794 0.448162 0.873727
vn -1.0000 0.0029 0.0078
vn -0.9400 0.2845 -0.1883
vn -0.9945 0.0983 -0.0358
vn -0.8595 0.4413 -0.2579
vn -0.8389 0.2020 -0.5054
vn -0.7781 0.2433 -0.5790
vn -0.8443 0.3110 -0.4363
vn -0.9413 0.2025 -0.2700
vn -0.8113 -0.1185 -0.5725
vn -0.7401 -0.1893 -0.6453
vn -0.7105 -0.1306 -0.6915
vn -0.5931 -0.3029 -0.7460
vn -0.6053 -0.1885 -0.7733
vn -0.5747 0.0221 -0.8181
vn -0.6926 0.0310 -0.7206
vn -0.6350 0.1169 -0.7636
vn -0.5848 0.1878 -0.7891
vn -0.5526 0.0983 -0.8276
vn -0.0075 -0.0830 -0.9965
vn 0.1204 -0.1219 -0.9852
vn 0.0423 -0.0983 -0.9943
vn -0.2356 0.0414 -0.9710
vn -0.6985 0.2729 -0.6615
vn -0.7773 0.2076 -0.5938
vn -0.5580 0.2290 -0.7976
vn -0.6805 0.2356 -0.6939
vn -0.1879 -0.0351 -0.9816
vn -0.0936 0.0137 -0.9955
vn 0.1590 0.0482 -0.9861
vn -0.0724 -0.0310 -0.9969
vn 0.1261 0.1248 -0.9841
vn 0.4978 -0.0379 -0.8665
vn 0.6582 0.0170 -0.7526
vn 0.4041 0.1567 -0.9012
vn 0.2276 0.0815 -0.9703
vn 0.5255 -0.2072 -0.8252
vn 0.5861 -0.2528 -0.7698
vn 0.7173 -0.2191 -0.6615
vn 0.6846 -0.3311 -0.6494
vn 0.8640 -0.1896 -0.4664
vn 0.9252 0.3627 -0.1114
vn 0.9088 -0.0449 -0.4147
vn 0.9934 0.0644 -0.0950
vn 0.8551 0.1436 -0.4982
vn 0.9474 0.3191 0.0257
vn 0.9571 0.1139 0.2663
vn 0.9748 0.0073 0.2231
vn 0.9832 0.1137 0.1428
vn 0.5773 0.2508 -0.7771
vn 0.4004 0.2694 -0.8758
vn 0.7843 0.3224 -0.5300
vn 0.7236 0.3089 -0.6173
vn 0.5960 0.2764 -0.7539
vn 0.9948 0.0670 -0.0772
vn 0.9929 0.1184 0.0131
vn 0.9740 0.1927 0.1194
vn 0.9938 0.1111 0.0044
vn 0.9461 0.1623 0.2804
vn 0.9077 0.2131 0.3614
vn 0.9307 0.1685 0.3248
vn 0.9636 0.0788 0.2554
vn 0.9030 -0.0338 0.4282
vn 0.8429 -0.0918 0.5303
vn 0.6685 0.0787 0.7396
vn 0.8369 0.0495 0.5451
vn 0.6973 0.1311 0.7046
vn 0.7721 0.1829 0.6086
vn 0.5920 0.1365 0.7943
vn 0.1954 0.1419 0.9704
vn -0.1019 0.0854 0.9911
vn 0.0851 0.1221 0.9889
vn 0.5129 0.1738 0.8407
vn 0.8270 0.0420 0.5607
vn 0.6936 -0.3903 0.6055
vn 0.6072 -0.1516 0.7800
vn 0.5530 -0.4303 0.7134
vn 0.3003 -0.4684 0.8309
vn 0.3894 -0.5993 0.6994
vn -0.4160 -0.1470 0.8974
vn -0.7645 0.1570 0.6252
vn -0.8118 -0.0760 0.5790
vn -0.8310 0.0806 0.5503
vn -0.6275 0.1000 0.7722
vn -0.2360 -0.2616 0.9359
vn -0.3623 -0.1282 0.9232
vn -0.8040 -0.3011 0.5128
vn -0.8335 -0.3046 0.4610
vn -0.8725 -0.2160 0.4384
vn -0.8796 -0.3081 0.3624
vn -0.9266 -0.1968 0.3204
vn -0.9916 -0.1013 0.0810
vn -0.9651 -0.0901 0.2461
vn -0.9999 -0.0111 0.0042
vn -0.9882 0.0069 0.1527
vn -0.9970 -0.0525 -0.0576
vn -0.9986 -0.0258 -0.0470
vn -0.9993 0.0138 -0.0344
vn -0.9968 0.0793 -0.0133
vn -0.6851 0.2949 0.6661
vn -0.5712 0.1512 0.8067
vn -0.7818 0.4483 0.4334
vn -0.7956 0.5004 0.3413
vn -0.7521 0.4207 0.5073
vn -0.6228 0.2580 0.7386
vn -0.5872 -0.6756 0.4458
vn -0.4606 -0.8440 0.2749
vn -0.3613 -0.9027 0.2338
vn -0.4732 -0.7603 0.4450
vn -0.2158 -0.9725 -0.0872
vn -0.1582 -0.9730 -0.1679
vn -0.0277 -0.9815 -0.1896
vn -0.0138 -0.9995 0.0274
vn -0.3544 -0.8274 0.4356
vn -0.0691 -0.9401 -0.3339
vn -0.0649 -0.9341 -0.3511
vn -0.0613 -0.9179 -0.3921
vn -0.0627 -0.9339 -0.3519
vn 0.0034 -0.9369 -0.3496
vn -0.0184 -0.9317 -0.3628
vn 0.0212 -0.9246 -0.3803
vn -0.0096 -0.9209 -0.3897
vn 0.0619 -0.9281 -0.3672
vn 0.6433 -0.7027 -0.3039
vn 0.6408 -0.6507 -0.4073
vn 0.6422 -0.7182 -0.2679
vn 0.6350 -0.7524 -0.1751
vn 0.3478 -0.7343 0.5829
vn 0.4770 -0.6496 0.5921
vn 0.1137 -0.9805 0.1603
vn 0.5305 -0.6490 0.5453
vn -0.6569 0.6003 0.4562
vn 0.1541 0.9326 0.3263
vn -0.1422 0.9833 -0.1138
vn -0.2938 0.9316 -0.2143
vn -0.5361 0.8202 -0.1995
vn -0.7729 0.6302 -0.0747
vn -0.7441 0.6489 -0.1586
vn 0.6509 0.7441 0.1505
vn 0.7549 0.6400 0.1436
vn 0.7379 0.6725 0.0559
vn 0.6062 0.7927 0.0653
vn 0.6337 0.7707 -0.0670
vn 0.4500 0.8867 -0.1062
vn 0.3234 0.9251 -0.1990
vn 0.7538 0.6571 0.0077
vn 0.4420 0.5684 -0.6939
vn -0.3697 0.7756 -0.5116
vn -0.1728 0.7537 -0.6341
vn -0.3527 0.7128 -0.6063
vn -0.5821 0.7076 -0.4006
vn -0.6938 0.6382 -0.3336
vn -0.5937 0.6304 -0.5001
vn -0.6813 0.5967 -0.4241
s 1
usemtl Asteroid
f 1//1 29//1 75//2 27//3
f 29//4 10//4 51//5 75//2
f 75//2 51//5 21//6 54//7
f 27//3 75//2 54//7 9//8
f 10//9 30//10 76//11 51//5
f 30//10 3//12 41//13 76//11
f 76//11 41//13 16//14 52//15
f 51//5 76//11 52//15 21//6
f 21//6 52//15 77//16 53//17
f 52//15 16//14 42//18 77//16
f 77//19 42//20 7//20 38//21
f 53//17 77//19 38//21 14//22
f 9//8 54//7 78//23 28//24
f 54//7 21//6 53//17 78//23
f 78//23 53//17 14//22 37//25
f 28//24 78//23 37//25 2//26
f 2//27 37//28 79//29 35//30
f 37//28 14//31 55//32 79//29
f 79//29 55//32 22//33 58//34
f 35//30 79//29 58//34 13//35
f 14//36 38//37 80//38 55//32
f 38//37 7//39 43//40 80//38
f 80//38 43//40 17//41 56//42
f 55//32 80//38 56//42 22//33
f 22//33 56//42 81//43 57//44
f 56//42 17//41 44//45 81//43
f 81//43 44//45 8//46 40//47
f 57//44 81//43 40//47 15//48
f 13//35 58//34 82//49 36//50
f 58//34 22//33 57//44 82//49
f 82//49 57//44 15//51 39//52
f 36//50 82//49 39//52 6//53
f 6//54 39//55 83//56 48//57
f 39//55 15//48 59//58 83//56
f 83//56 59//58 23//59 62//60
f 48//57 83//56 62//60 19//61
f 15//48 40//47 84//62 59//58
f 40//47 8//46 50//63 84//62
f 84//62 50//63 20//64 60//65
f 59//58 84//62 60//65 23//59
f 23//59 60//65 85//66 61//67
f 60//65 20//64 49//68 85//66
f 85//69 49//70 4//70 33//71
f 61//67 85//69 33//71 12//72
f 19//61 62//60 86//73 47//74
f 62//60 23//59 61//67 86//73
f 86//73 61//67 12//72 34//75
f 47//74 86//73 34//75 5//76
f 5//76 34//75 87//77 46//78
f 34//79 12//79 63//79 87//79
f 87//80 63//81 24//82 66//83
f 46//84 87//84 66//83 18//85
f 12//86 33//87 88//88 63//81
f 33//87 4//89 32//90 88//88
f 88//88 32//90 11//91 64//92
f 63//81 88//88 64//92 24//82
f 24//82 64//92 89//93 65//94
f 64//92 11//91 31//95 89//93
f 89//93 31//95 3//96 30//97
f 65//94 89//93 30//97 10//98
f 18//85 66//83 90//99 45//100
f 66//83 24//82 65//101 90//99
f 90//99 65//101 10//102 29//103
f 45//100 90//99 29//103 1//104
f 1//105 27//106 91//107 45//108
f 27//106 9//109 67//110 91//107
f 91//107 67//110 25//111 70//112
f 45//108 91//107 70//113 18//113
f 9//109 28//114 92//115 67//110
f 28//114 2//116 35//117 92//115
f 92//115 35//117 13//118 68//119
f 67//110 92//115 68//119 25//111
f 25//111 68//119 93//120 69//121
f 68//119 13//118 36//122 93//120
f 93//123 36//124 6//124 48//125
f 69//126 93//123 48//125 19//126
f 18//127 70//127 94//128 46//78
f 70//112 25//111 69//129 94//129
f 94//128 69//130 19//130 47//74
f 46//78 94//128 47//74 5//76
f 4//131 49//131 95//131 32//131
f 49//132 20//132 71//132 95//132
f 95//133 71//133 26//134 74//135
f 32//136 95//136 74//135 11//137
f 20//138 50//139 96//140 71//141
f 50//139 8//46 44//45 96//140
f 96//140 44//45 17//41 72//142
f 71//141 96//140 72//142 26//143
f 26//143 72//142 97//144 73//144
f 72//142 17//41 43//145 97//145
f 97//146 43//146 7//146 42//146
f 73//147 97//148 42//148 16//149
f 11//137 74//135 98//150 31//151
f 74//135 26//134 73//147 98//150
f 98//150 73//147 16//149 41//152
f 31//151 98//150 41//152 3//153
