# Blender 3.6.1
# www.blender.org
mtllib Asteroid4.mtl
o rock.019
v -2.081898 -0.081984 0.074245
v -1.533723 -0.232333 0.258245
v -1.701885 -0.261281 -0.297157
v -2.227920 -0.224023 -0.458087
v -1.696366 0.302893 0.276926
v -1.705658 0.296456 -0.296658
v -2.373859 0.305163 -0.320229
v -2.380290 0.490445 0.336549
v -1.801843 -0.222871 0.233599
v -1.875328 -0.339862 -0.133427
v -2.229065 -0.221482 -0.206496
v -1.870030 0.121382 0.343970
v -1.694283 0.007829 -0.308797
v -2.289757 0.152448 -0.155673
v -2.272135 0.155536 0.251660
v -1.502857 -0.283225 -0.024572
v -2.496201 0.495337 -0.021320
v -1.989019 0.526078 0.311137
v -1.553432 0.029288 0.279856
v -1.963110 -0.259806 -0.475110
v -2.003249 0.387017 -0.390916
v -2.323265 0.028702 -0.473517
v -1.673123 0.321227 -0.003960
v -1.756056 -0.388438 0.038186
v -2.020479 -0.343873 -0.264995
v -2.323000 -0.010303 -0.265004
v -2.384681 0.230115 0.023503
v -2.043431 0.223240 0.434706
v -1.741741 -0.016931 0.345145
v -1.530589 0.033398 -0.011540
v -1.977641 0.026086 -0.480741
v -1.987829 0.590972 -0.046366
v -1.915897 -0.158953 0.164855
v -1.666253 -0.255609 0.268494
v -1.967712 -0.239695 -0.038092
v -1.764622 -0.367525 -0.242969
v -2.150236 -0.142721 -0.111676
v -2.249954 -0.248487 -0.339968
v -1.961290 0.033222 0.241153
v -1.766506 0.229959 0.375679
v -1.683800 -0.131657 -0.323810
v -1.697050 0.159836 -0.304677
v -2.210940 0.066105 -0.073549
v -2.387978 0.202307 -0.220023
v -2.187576 0.050671 0.168269
v -2.347155 0.290062 0.331522
v -1.513740 -0.259435 0.133080
v -1.558053 -0.292786 -0.192780
v -2.480224 0.429444 -0.211293
v -2.469714 0.516603 0.170287
v -1.822222 0.429024 0.291858
v -2.181985 0.560470 0.345894
v -1.510857 -0.115301 0.290641
v -1.605504 0.172367 0.278006
v -1.828485 -0.254003 -0.399529
v -2.116678 -0.251100 -0.484998
v -1.829072 0.344038 -0.346191
v -2.192651 0.363840 -0.367496
v -2.284654 -0.121895 -0.487789
v -2.352534 0.178424 -0.418904
v -1.679614 0.315870 0.139262
v -1.675471 0.322541 -0.163358
v -1.812299 -0.378427 -0.039844
v -1.612380 -0.412826 0.009272
v -1.793886 -0.343677 0.139284
v -2.104977 -0.289509 -0.241657
v -1.994907 -0.352488 -0.376298
v -1.949892 -0.335074 -0.212018
v -2.308171 0.060069 -0.220137
v -2.366842 -0.002087 -0.349934
v -2.290412 -0.093926 -0.238649
v -2.360268 0.180096 0.114809
v -2.451962 0.295238 0.017793
v -2.349237 0.193422 -0.054519
v -1.960140 0.178790 0.390165
v -2.015801 0.385995 0.439341
v -2.155562 0.175452 0.388227
v -1.765991 -0.100693 0.299540
v -1.640328 0.005433 0.370592
v -1.791560 0.050333 0.335157
v -1.610884 0.166502 0.001040
v -1.530884 0.037431 0.137064
v -1.479934 -0.121560 -0.027694
v -1.540326 0.026733 -0.195803
v -1.851125 0.005497 -0.366453
v -1.962179 -0.117758 -0.485584
v -2.150709 0.046256 -0.534993
v -1.994052 0.200848 -0.466197
v -2.001397 0.517003 -0.230797
v -2.203238 0.577346 -0.049741
v -1.985643 0.573524 0.138102
v -1.797931 0.477731 -0.021909
v -1.890461 -0.284891 0.058237
v -1.668428 -0.417138 -0.136916
v -1.635900 -0.348504 0.149546
v -2.043049 -0.255523 -0.139800
v -2.131908 -0.325906 -0.370590
v -1.871449 -0.351487 -0.323298
v -2.218926 -0.010146 -0.175372
v -2.377737 0.110329 -0.299314
v -2.337696 -0.135090 -0.351282
v -2.256274 0.143776 0.026087
v -2.436494 0.278637 0.164321
v -2.440786 0.257144 -0.113184
v -2.066978 0.083853 0.307157
v -1.877275 0.321753 0.394451
v -2.186749 0.361111 0.430937
v -1.854298 -0.032915 0.247120
v -1.646691 -0.129835 0.349726
v -1.686941 0.126878 0.371278
v -1.592505 0.177589 -0.169362
v -1.614068 0.165027 0.137021
v -1.474300 -0.108244 0.131047
v -1.538041 -0.135560 -0.199659
v -1.849193 0.163205 -0.366542
v -1.834248 -0.122505 -0.393392
v -2.124339 -0.110945 -0.528949
v -2.171788 0.199055 -0.446845
v -1.801321 0.466790 -0.203579
v -2.206558 0.495981 -0.226406
v -2.184904 0.629616 0.135866
v -1.809240 0.460226 0.140496
vn -0.6331 -0.6220 0.4607
vn -0.5815 -0.7235 0.3720
vn -0.6519 -0.6771 0.3415
vn -0.6137 -0.4700 0.6344
vn -0.4155 -0.9013 0.1226
vn -0.4550 -0.8874 0.0742
vn -0.2836 -0.9288 0.2384
vn -0.6421 -0.6642 0.3827
vn -0.4925 -0.4822 0.7245
vn 0.5087 -0.3876 -0.7687
vn 0.5135 -0.3998 -0.7592
vn 0.3896 -0.6182 -0.6827
vn 0.4116 -0.6263 -0.6621
vn 0.6987 -0.6817 -0.2171
vn 0.7170 -0.6966 0.0248
vn 0.7170 -0.6967 0.0228
vn -0.2701 -0.9623 -0.0330
vn -0.1324 -0.9662 0.2210
vn -0.2639 -0.9636 -0.0434
vn 0.3971 -0.7886 0.4695
vn 0.5600 -0.7384 0.3757
vn 0.5621 -0.7375 0.3743
vn -0.2892 -0.5736 0.7664
vn -0.1391 -0.8154 0.5619
vn -0.1259 -0.8361 0.5339
vn -0.6689 -0.4689 0.5768
vn -0.4271 -0.7501 0.5048
vn -0.4013 -0.7780 0.4834
vn -0.3715 -0.8294 0.4173
vn -0.2274 -0.9349 0.2726
vn -0.2400 -0.9331 0.2679
vn -0.6223 -0.6917 -0.3665
vn -0.2672 -0.7992 -0.5384
vn -0.2808 -0.7997 -0.5306
vn -0.6300 -0.6861 -0.3639
vn 0.1272 -0.7570 -0.6409
vn 0.1217 -0.7579 -0.6409
vn -0.3762 -0.8974 0.2304
vn -0.1595 -0.9768 0.1427
vn -0.4353 -0.8538 0.2856
vn 0.3856 -0.6708 -0.6335
vn 0.3820 -0.6732 -0.6331
vn -0.0911 -0.9925 0.0810
vn -0.8061 -0.5294 0.2644
vn -0.7632 -0.2516 0.5951
vn -0.7406 -0.3995 0.5403
vn -0.7500 -0.3130 0.5827
vn -0.7963 -0.2036 0.5696
vn -0.7813 -0.2273 0.5813
vn -0.6835 -0.0741 0.7261
vn -0.9437 -0.1805 -0.2774
vn -0.9728 -0.0162 -0.2310
vn -0.9735 -0.0154 -0.2283
vn -0.9423 -0.1843 -0.2794
vn -0.9364 -0.1179 -0.3304
vn -0.9377 -0.1139 -0.3283
vn -0.7816 -0.3272 0.5311
vn -0.8579 -0.2190 0.4648
vn -0.7218 -0.4054 0.5610
vn -0.8543 -0.3864 -0.3476
vn -0.8537 -0.3880 -0.3474
vn -0.8232 -0.4459 0.3515
vn -0.8557 -0.3344 0.3950
vn -0.7134 -0.7005 0.0209
vn -0.6691 -0.7431 0.0112
vn -0.5692 -0.7069 0.4199
vn -0.6634 -0.7452 0.0679
vn -0.6643 -0.7474 -0.0113
vn -0.6100 -0.7908 0.0507
vn -0.6131 -0.7853 0.0865
vn -0.8748 -0.1440 0.4626
vn -0.9429 -0.1566 0.2939
vn -0.9402 -0.1561 0.3027
vn -0.9794 -0.1933 0.0579
vn -0.9795 -0.1920 0.0609
vn -0.7286 -0.6602 0.1826
vn -0.7104 -0.7030 0.0339
vn -0.5856 -0.5467 0.5986
vn -0.9421 -0.2833 -0.1794
vn -0.9439 -0.2812 -0.1733
vn -0.5515 -0.8299 0.0845
vn -0.6021 -0.7918 0.1022
vn -0.2913 -0.6285 0.7212
vn -0.1768 -0.7553 0.6311
vn -0.3176 -0.7796 0.5398
vn -0.0928 -0.4411 0.8926
vn 0.0050 -0.6961 0.7179
vn 0.0042 -0.6755 0.7374
vn -0.2928 -0.5518 0.7809
vn 0.5467 0.4315 0.7176
vn 0.4752 0.4953 0.7273
vn 0.4758 0.4947 0.7273
vn 0.5471 0.4312 0.7174
vn 0.2560 0.5392 0.8024
vn 0.2470 0.5389 0.8053
vn 0.2265 -0.1881 0.9557
vn 0.0846 -0.1411 0.9864
vn 0.0656 -0.1409 0.9879
vn 0.2230 -0.1900 0.9561
vn 0.0034 -0.2213 0.9752
vn -0.3438 0.1608 0.9252
vn -0.3141 -0.2834 0.9061
vn 0.0751 0.5254 0.8475
vn -0.5190 -0.3695 0.7708
vn -0.4855 -0.2945 0.8231
vn -0.4022 -0.2029 0.8928
vn -0.3440 -0.2830 0.8953
vn 0.2823 -0.4466 0.8490
vn 0.5527 0.0415 0.8323
vn 0.6144 0.1474 0.7751
vn 0.6140 0.1466 0.7756
vn -0.3508 -0.3224 0.8792
vn -0.2849 -0.1533 0.9462
vn 0.6226 0.3327 0.7082
vn 0.6222 0.3335 0.7083
vn -0.1903 -0.1453 0.9709
vn 0.7433 0.4723 -0.4739
vn 0.8255 0.5215 -0.2159
vn 0.7550 0.2445 -0.6085
vn 0.5841 0.1470 -0.7983
vn 0.8458 0.5317 0.0433
vn 0.8949 0.4451 0.0332
vn 0.9032 0.4270 0.0428
vn 0.9274 0.3711 -0.0466
vn 0.9522 0.2908 -0.0934
vn 0.6427 0.1352 -0.7541
vn 0.5124 0.1157 -0.8509
vn 0.8283 0.5534 0.0875
vn 0.8859 0.4628 0.0320
vn 0.8029 0.5860 0.1090
vn 0.8837 0.4663 0.0404
vn 0.9152 0.3834 0.1241
vn 0.9092 0.4127 0.0554
vn 0.9404 0.3317 0.0747
vn 0.9912 0.0402 -0.1262
vn 0.9267 0.3198 0.1972
vn 0.9680 -0.2197 0.1217
vn 0.9479 -0.2434 0.2054
vn 0.9691 -0.2178 0.1156
vn 0.9752 -0.1663 -0.1460
vn 0.6117 -0.0470 -0.7897
vn 0.5382 -0.0027 -0.8428
vn 0.9667 0.0101 -0.2558
vn 0.9427 -0.1365 -0.3045
vn 0.3848 0.0683 -0.9205
vn 0.4666 0.0883 -0.8800
vn 0.4204 0.1483 -0.8952
vn 0.5071 0.1077 -0.8551
vn 0.4298 0.1365 -0.8925
vn 0.5327 0.1450 -0.8338
vn 0.4470 0.2131 -0.8688
vn 0.5220 0.0660 -0.8504
vn 0.5303 -0.0480 -0.8464
vn 0.3584 -0.0947 -0.9287
vn 0.4174 0.0033 -0.9087
vn -0.0137 -0.1283 -0.9916
vn -0.0520 0.1783 -0.9826
vn -0.0256 -0.2603 -0.9652
vn -0.2476 -0.3414 -0.9067
vn -0.2769 -0.1629 -0.9470
vn -0.2831 0.1976 -0.9385
vn 0.0108 0.6449 -0.7642
vn -0.0048 0.3502 -0.9367
vn -0.1499 0.3925 -0.9074
vn -0.2042 0.5666 -0.7983
vn -0.2722 0.4277 -0.8620
vn -0.2735 0.5489 -0.7899
vn 0.4595 0.6841 -0.5664
vn 0.5438 0.7617 -0.3522
vn 0.1235 0.8585 -0.4977
vn 0.2438 0.9559 -0.1635
vn 0.6293 0.7770 -0.0136
vn -0.1901 0.8123 -0.5514
vn -0.2728 0.7952 -0.5416
vn -0.2985 0.9193 -0.2566
vn -0.1509 0.9542 -0.2582
vn -0.0753 0.9938 0.0823
vn 0.3532 0.9262 0.1321
vn -0.3358 0.9402 0.0565
vn -0.3233 0.8954 0.3061
vn 0.2378 0.9291 0.2831
vn 0.3767 0.8895 0.2587
vn 0.6346 0.7580 0.1505
vn 0.6221 0.7560 0.2037
s 1
usemtl Asteroid
f 1//1 35//2 93//3 33//4
f 35//2 10//5 63//6 93//3
f 93//3 63//6 24//7 65//8
f 33//4 93//3 65//8 9//9
f 3//10 48//11 94//12 36//13
f 48//14 16//15 64//16 94//14
f 94//17 64//18 24//7 63//6
f 36//19 94//17 63//6 10//5
f 2//20 34//20 95//21 47//22
f 34//23 9//9 65//24 95//25
f 95//25 65//24 24//7 64//18
f 47//22 95//21 64//16 16//15
f 1//1 37//26 96//27 35//2
f 37//26 11//28 66//29 96//27
f 96//27 66//29 25//30 68//31
f 35//2 96//27 68//31 10//5
f 4//32 56//33 97//34 38//35
f 56//33 20//36 67//37 97//34
f 97//38 67//39 25//30 66//29
f 38//40 97//38 66//29 11//28
f 3//10 36//13 98//41 55//42
f 36//19 10//5 68//31 98//43
f 98//43 68//31 25//30 67//39
f 55//42 98//41 67//37 20//36
f 1//1 43//44 99//45 37//26
f 43//44 14//46 69//47 99//45
f 99//45 69//47 26//48 71//49
f 37//26 99//45 71//49 11//50
f 7//51 60//52 100//53 44//54
f 60//52 22//55 70//56 100//53
f 100//57 70//58 26//48 69//47
f 44//59 100//57 69//47 14//46
f 4//32 38//35 101//60 59//61
f 38//62 11//62 71//49 101//63
f 101//63 71//49 26//48 70//58
f 59//61 101//60 70//56 22//55
f 1//1 45//64 102//65 43//44
f 45//64 15//66 72//67 102//65
f 102//65 72//67 27//68 74//69
f 43//44 102//65 74//69 14//70
f 8//71 50//72 103//73 46//71
f 50//72 17//74 73//75 103//73
f 103//76 73//77 27//68 72//67
f 46//78 103//76 72//67 15//66
f 7//51 44//54 104//79 49//80
f 44//81 14//70 74//69 104//82
f 104//82 74//69 27//68 73//77
f 49//80 104//79 73//75 17//74
f 1//1 39//83 105//84 45//85
f 39//83 12//86 75//87 105//84
f 105//84 75//87 28//88 77//89
f 45//85 105//84 77//89 15//66
f 5//90 51//91 106//92 40//93
f 51//91 18//94 76//95 106//92
f 106//96 76//97 28//98 75//99
f 40//100 106//96 75//99 12//86
f 8//101 46//101 107//101 52//101
f 46//78 15//66 77//89 107//102
f 107//102 77//89 28//98 76//97
f 52//103 107//103 76//95 18//94
f 1//1 33//4 108//104 39//83
f 33//4 9//9 78//105 108//104
f 108//104 78//105 29//106 80//107
f 39//83 108//104 80//107 12//86
f 2//108 53//108 109//108 34//108
f 53//109 19//110 79//111 109//109
f 109//112 79//113 29//106 78//105
f 34//23 109//112 78//105 9//9
f 5//90 40//93 110//114 54//115
f 40//100 12//86 80//107 110//116
f 110//116 80//107 29//106 79//113
f 54//115 110//114 79//111 19//110
f 6//117 62//118 111//119 42//120
f 62//118 23//121 81//122 111//123
f 111//123 81//122 30//124 84//125
f 42//120 111//119 84//126 13//127
f 23//121 61//128 112//129 81//122
f 61//128 5//130 54//131 112//129
f 112//129 54//131 19//132 82//133
f 81//122 112//129 82//133 30//124
f 30//124 82//133 113//134 83//135
f 82//133 19//132 53//136 113//134
f 113//137 53//138 2//138 47//139
f 83//135 113//137 47//139 16//140
f 13//127 84//126 114//141 41//142
f 84//125 30//124 83//135 114//143
f 114//143 83//135 16//140 48//144
f 41//142 114//141 48//11 3//10
f 6//145 42//120 115//146 57//147
f 42//120 13//127 85//148 115//146
f 115//146 85//148 31//149 88//150
f 57//147 115//146 88//150 21//151
f 13//127 41//142 116//152 85//148
f 41//142 3//10 55//153 116//152
f 116//152 55//153 20//154 86//155
f 85//148 116//152 86//155 31//149
f 31//149 86//155 117//156 87//157
f 86//155 20//154 56//158 117//156
f 117//156 56//158 4//159 59//160
f 87//157 117//156 59//160 22//161
f 21//162 88//163 118//164 58//165
f 88//163 31//149 87//157 118//164
f 118//164 87//157 22//161 60//166
f 58//165 118//164 60//166 7//167
f 6//117 57//168 119//169 62//118
f 57//168 21//162 89//170 119//169
f 119//169 89//170 32//171 92//172
f 62//118 119//169 92//172 23//121
f 21//162 58//165 120//173 89//170
f 58//165 7//167 49//174 120//173
f 120//173 49//174 17//175 90//176
f 89//170 120//173 90//176 32//171
f 32//171 90//176 121//177 91//178
f 90//176 17//175 50//179 121//177
f 121//177 50//179 8//180 52//180
f 91//178 121//177 52//181 18//182
f 23//121 92//172 122//183 61//128
f 92//172 32//171 91//178 122//183
f 122//183 91//178 18//182 51//184
f 61//128 122//183 51//184 5//130
