# Blender 3.4.1
# www.blender.org
mtllib advertisement.mtl
o Plane
v 0.000000 2.500000 5.000000
v -0.000000 -2.500000 5.000000
v 0.000000 2.500000 -5.000000
v -0.000000 -2.500000 -5.000000
vn 1.0000 -0.0000 -0.0000
vt 0.000000 0.000000
vt 1.000000 0.000000
vt 0.000000 1.000000
vt 1.000000 1.000000
s 0
g Plane_Material.002
usemtl Material.002
f 1/1/1 2/2/1 4/4/1 3/3/1
o Cube
v -0.500000 -3.000000 6.000000
v -0.500000 3.000000 6.000000
v -0.500000 -3.000000 5.000000
v -0.500000 3.000000 5.000000
v 0.500000 -3.000000 6.000000
v 0.500000 3.000000 6.000000
v 0.500000 -3.000000 5.000000
v 0.500000 3.000000 5.000000
vn -1.0000 -0.0000 -0.0000
vn -0.0000 -0.0000 -1.0000
vn 1.0000 -0.0000 -0.0000
vn -0.0000 -0.0000 1.0000
vn -0.0000 -1.0000 -0.0000
vn -0.0000 1.0000 -0.0000
vt 0.375000 0.000000
vt 0.375000 1.000000
vt 0.125000 0.750000
vt 0.625000 0.000000
vt 0.625000 1.000000
vt 0.875000 0.750000
vt 0.375000 0.250000
vt 0.125000 0.500000
vt 0.625000 0.250000
vt 0.875000 0.500000
vt 0.375000 0.750000
vt 0.625000 0.750000
vt 0.375000 0.500000
vt 0.625000 0.500000
s 0
g Cube_Material.001
usemtl Material.001
f 5/5/2 6/8/2 8/13/2 7/11/2
f 7/11/3 8/13/3 12/18/3 11/17/3
f 11/17/4 12/18/4 10/16/4 9/15/4
f 9/15/5 10/16/5 6/9/5 5/6/5
f 7/12/6 11/17/6 9/15/6 5/7/6
f 12/18/7 8/14/7 6/10/7 10/16/7
o Cube.001
v -0.500000 -3.000000 -5.000000
v -0.500000 3.000000 -5.000000
v -0.500000 -3.000000 -6.000000
v -0.500000 3.000000 -6.000000
v 0.500000 -3.000000 -5.000000
v 0.500000 3.000000 -5.000000
v 0.500000 -3.000000 -6.000000
v 0.500000 3.000000 -6.000000
vn -1.0000 -0.0000 -0.0000
vn -0.0000 -0.0000 -1.0000
vn 1.0000 -0.0000 -0.0000
vn -0.0000 -0.0000 1.0000
vn -0.0000 -1.0000 -0.0000
vn -0.0000 1.0000 -0.0000
vt 0.375000 0.000000
vt 0.375000 1.000000
vt 0.125000 0.750000
vt 0.625000 0.000000
vt 0.625000 1.000000
vt 0.875000 0.750000
vt 0.375000 0.250000
vt 0.125000 0.500000
vt 0.625000 0.250000
vt 0.875000 0.500000
vt 0.375000 0.750000
vt 0.625000 0.750000
vt 0.375000 0.500000
vt 0.625000 0.500000
s 0
g Cube.001_Material.001
usemtl Material.001
f 13/19/8 14/22/8 16/27/8 15/25/8
f 15/25/9 16/27/9 20/32/9 19/31/9
f 19/31/10 20/32/10 18/30/10 17/29/10
f 17/29/11 18/30/11 14/23/11 13/20/11
f 15/26/12 19/31/12 17/29/12 13/21/12
f 20/32/13 16/28/13 14/24/13 18/30/13
