# Blender 3.6.2
# www.blender.org
mtllib Crusher.mtl
o Cylinder.001
v 0.780000 -0.000000 -0.060000
v -0.780000 -0.000000 -0.060000
v 0.780000 0.022961 -0.055433
v -0.780000 0.022961 -0.055433
v 0.780000 0.042426 -0.042426
v -0.780000 0.042426 -0.042426
v 0.780000 0.055433 -0.022961
v -0.780000 0.055433 -0.022961
v 0.780000 0.060000 -0.000000
v -0.780000 0.060000 -0.000000
v 0.780000 0.055433 0.022961
v -0.780000 0.055433 0.022961
v 0.780000 0.042426 0.042426
v -0.780000 0.042426 0.042426
v 0.780000 0.022961 0.055433
v -0.780000 0.022961 0.055433
v 0.780000 -0.000000 0.060000
v -0.780000 -0.000000 0.060000
v 0.780000 -0.022961 0.055433
v -0.780000 -0.022961 0.055433
v 0.780000 -0.042426 0.042426
v -0.780000 -0.042426 0.042426
v 0.780000 -0.055433 0.022961
v -0.780000 -0.055433 0.022961
v 0.780000 -0.060000 -0.000000
v -0.780000 -0.060000 -0.000000
v 0.780000 -0.055433 -0.022961
v -0.780000 -0.055433 -0.022961
v 0.780000 -0.042426 -0.042426
v -0.780000 -0.042426 -0.042426
v 0.780000 -0.022961 -0.055433
v -0.780000 -0.022961 -0.055433
v -0.050000 -0.000000 -0.300000
v -0.250000 0.000000 -0.300000
v -0.050000 0.114805 -0.277164
v -0.250000 0.114805 -0.277164
v -0.050000 0.212132 -0.212132
v -0.250000 0.212132 -0.212132
v -0.050000 0.277164 -0.114805
v -0.250000 0.277164 -0.114805
v -0.050000 0.300000 -0.000000
v -0.250000 0.300000 -0.000000
v -0.050000 0.277164 0.114805
v -0.250000 0.277164 0.114805
v -0.050000 0.212132 0.212132
v -0.250000 0.212132 0.212132
v -0.050000 0.114805 0.277164
v -0.250000 0.114805 0.277164
v -0.050000 -0.000000 0.300000
v -0.250000 0.000000 0.300000
v -0.050000 -0.114805 0.277164
v -0.250000 -0.114805 0.277164
v -0.050000 -0.212132 0.212132
v -0.250000 -0.212132 0.212132
v -0.050000 -0.277164 0.114805
v -0.250000 -0.277164 0.114805
v -0.050000 -0.300000 -0.000000
v -0.250000 -0.300000 -0.000000
v -0.050000 -0.277164 -0.114805
v -0.250000 -0.277164 -0.114805
v -0.050000 -0.212132 -0.212132
v -0.250000 -0.212132 -0.212132
v -0.050000 -0.114805 -0.277164
v -0.250000 -0.114805 -0.277164
v -0.120000 0.300000 -0.000000
v -0.180000 0.300000 -0.000000
v -0.120000 0.277164 0.114805
v -0.180000 0.277164 0.114805
v -0.120000 0.212132 0.212132
v -0.180000 0.212132 0.212132
v -0.120000 0.114805 0.277164
v -0.180000 0.114805 0.277164
v -0.120000 -0.000000 0.300000
v -0.180000 0.000000 0.300000
v -0.120000 -0.114805 0.277164
v -0.180000 -0.114805 0.277164
v -0.120000 -0.212132 0.212132
v -0.180000 -0.212132 0.212132
v -0.120000 -0.277164 0.114805
v -0.180000 -0.277164 0.114805
v -0.250000 0.277164 0.114805
v -0.050000 0.277164 0.114805
v -0.250000 0.212132 0.212132
v -0.050000 0.212132 0.212132
v -0.250000 0.114805 0.277164
v -0.050000 0.114805 0.277164
v -0.250000 0.000000 0.300000
v -0.050000 -0.000000 0.300000
v -0.250000 -0.114805 0.277164
v -0.050000 -0.114805 0.277164
v -0.250000 -0.212132 0.212132
v -0.050000 -0.212132 0.212132
v -0.250000 -0.277164 0.114805
v -0.050000 -0.277164 0.114805
v -0.250000 -0.300000 -0.000000
v -0.050000 -0.300000 -0.000000
v -0.120000 0.354931 0.032243
v -0.120000 0.428198 0.123531
v -0.180000 0.428198 0.123531
v -0.180000 0.354931 0.032243
v -0.120000 0.315575 0.165615
v -0.120000 0.348330 0.277992
v -0.180000 0.348330 0.277992
v -0.180000 0.315575 0.165614
v -0.120000 0.228175 0.273773
v -0.120000 0.215432 0.390132
v -0.180000 0.215432 0.390131
v -0.180000 0.228175 0.273773
v -0.120000 -0.165615 0.315575
v -0.120000 -0.277992 0.348330
v -0.180000 -0.277992 0.348330
v -0.180000 -0.165615 0.315575
v -0.120000 0.106038 0.340252
v -0.120000 0.049736 0.442877
v -0.180000 0.049736 0.442877
v -0.180000 0.106038 0.340252
v -0.120000 -0.340252 0.106038
v -0.120000 -0.442877 0.049736
v -0.180000 -0.442877 0.049736
v -0.180000 -0.340252 0.106038
v -0.120000 -0.032243 0.354931
v -0.120000 -0.123531 0.428198
v -0.180000 -0.123531 0.428198
v -0.180000 -0.032243 0.354931
v -0.120000 -0.273773 0.228175
v -0.120000 -0.390132 0.215432
v -0.180000 -0.390131 0.215432
v -0.180000 -0.273773 0.228175
v -0.120000 -0.300000 -0.000000
v -0.180000 -0.300000 -0.000000
v -0.120000 -0.277164 -0.114805
v -0.180000 -0.277164 -0.114805
v -0.120000 -0.212132 -0.212132
v -0.180000 -0.212132 -0.212132
v -0.120000 -0.114805 -0.277164
v -0.180000 -0.114805 -0.277164
v -0.120000 0.000000 -0.300000
v -0.180000 0.000000 -0.300000
v -0.120000 0.114805 -0.277164
v -0.180000 0.114805 -0.277164
v -0.120000 0.212132 -0.212132
v -0.180000 0.212132 -0.212132
v -0.120000 0.277164 -0.114805
v -0.180000 0.277164 -0.114805
v -0.250000 -0.277164 -0.114805
v -0.050000 -0.277164 -0.114805
v -0.250000 -0.212132 -0.212132
v -0.050000 -0.212132 -0.212132
v -0.250000 -0.114805 -0.277164
v -0.050000 -0.114805 -0.277164
v -0.250000 0.000000 -0.300000
v -0.050000 0.000000 -0.300000
v -0.250000 0.114805 -0.277164
v -0.050000 0.114805 -0.277164
v -0.250000 0.212132 -0.212132
v -0.050000 0.212132 -0.212132
v -0.250000 0.277164 -0.114805
v -0.050000 0.277164 -0.114805
v -0.250000 0.300000 0.000000
v -0.050000 0.300000 0.000000
v -0.120000 -0.354931 -0.032243
v -0.120000 -0.428198 -0.123532
v -0.180000 -0.428198 -0.123531
v -0.180000 -0.354931 -0.032243
v -0.120000 -0.315575 -0.165615
v -0.120000 -0.348330 -0.277992
v -0.180000 -0.348330 -0.277992
v -0.180000 -0.315575 -0.165615
v -0.120000 -0.228175 -0.273773
v -0.120000 -0.215432 -0.390132
v -0.180000 -0.215432 -0.390132
v -0.180000 -0.228175 -0.273773
v -0.120000 0.165615 -0.315575
v -0.120000 0.277992 -0.348330
v -0.180000 0.277992 -0.348330
v -0.180000 0.165615 -0.315575
v -0.120000 -0.106038 -0.340252
v -0.120000 -0.049736 -0.442877
v -0.180000 -0.049736 -0.442877
v -0.180000 -0.106038 -0.340252
v -0.120000 0.340252 -0.106038
v -0.120000 0.442877 -0.049736
v -0.180000 0.442877 -0.049736
v -0.180000 0.340252 -0.106038
v -0.120000 0.032243 -0.354931
v -0.120000 0.123531 -0.428198
v -0.180000 0.123531 -0.428198
v -0.180000 0.032243 -0.354931
v -0.120000 0.273773 -0.228175
v -0.120000 0.390132 -0.215432
v -0.180000 0.390132 -0.215432
v -0.180000 0.273773 -0.228175
v 0.250000 -0.000000 -0.300000
v 0.050000 0.000000 -0.300000
v 0.250000 0.114805 -0.277164
v 0.050000 0.114805 -0.277164
v 0.250000 0.212132 -0.212132
v 0.050000 0.212132 -0.212132
v 0.250000 0.277164 -0.114805
v 0.050000 0.277164 -0.114805
v 0.250000 0.300000 -0.000000
v 0.050000 0.300000 -0.000000
v 0.250000 0.277164 0.114805
v 0.050000 0.277164 0.114805
v 0.250000 0.212132 0.212132
v 0.050000 0.212132 0.212132
v 0.250000 0.114805 0.277164
v 0.050000 0.114805 0.277164
v 0.250000 -0.000000 0.300000
v 0.050000 0.000000 0.300000
v 0.250000 -0.114805 0.277164
v 0.050000 -0.114805 0.277164
v 0.250000 -0.212132 0.212132
v 0.050000 -0.212132 0.212132
v 0.250000 -0.277164 0.114805
v 0.050000 -0.277164 0.114805
v 0.250000 -0.300000 -0.000000
v 0.050000 -0.300000 -0.000000
v 0.250000 -0.277164 -0.114805
v 0.050000 -0.277164 -0.114805
v 0.250000 -0.212132 -0.212132
v 0.050000 -0.212132 -0.212132
v 0.250000 -0.114805 -0.277164
v 0.050000 -0.114805 -0.277164
v 0.180000 0.300000 -0.000000
v 0.120000 0.300000 -0.000000
v 0.180000 0.277164 0.114805
v 0.120000 0.277164 0.114805
v 0.180000 0.212132 0.212132
v 0.120000 0.212132 0.212132
v 0.180000 0.114805 0.277164
v 0.120000 0.114805 0.277164
v 0.180000 -0.000000 0.300000
v 0.120000 0.000000 0.300000
v 0.180000 -0.114805 0.277164
v 0.120000 -0.114805 0.277164
v 0.180000 -0.212132 0.212132
v 0.120000 -0.212132 0.212132
v 0.180000 -0.277164 0.114805
v 0.120000 -0.277164 0.114805
v 0.050000 0.277164 0.114805
v 0.250000 0.277164 0.114805
v 0.050000 0.212132 0.212132
v 0.250000 0.212132 0.212132
v 0.050000 0.114805 0.277164
v 0.250000 0.114805 0.277164
v 0.050000 0.000000 0.300000
v 0.250000 -0.000000 0.300000
v 0.050000 -0.114805 0.277164
v 0.250000 -0.114805 0.277164
v 0.050000 -0.212132 0.212132
v 0.250000 -0.212132 0.212132
v 0.050000 -0.277164 0.114805
v 0.250000 -0.277164 0.114805
v 0.050000 -0.300000 -0.000000
v 0.250000 -0.300000 -0.000000
v 0.180000 0.354931 0.032243
v 0.180000 0.428198 0.123531
v 0.120000 0.428198 0.123531
v 0.120000 0.354931 0.032243
v 0.180000 0.315575 0.165615
v 0.180000 0.348330 0.277992
v 0.120000 0.348330 0.277992
v 0.120000 0.315575 0.165614
v 0.180000 0.228175 0.273773
v 0.180000 0.215432 0.390132
v 0.120000 0.215432 0.390131
v 0.120000 0.228175 0.273773
v 0.180000 -0.165615 0.315575
v 0.180000 -0.277992 0.348330
v 0.120000 -0.277992 0.348330
v 0.120000 -0.165615 0.315575
v 0.180000 0.106038 0.340252
v 0.180000 0.049736 0.442877
v 0.120000 0.049736 0.442877
v 0.120000 0.106038 0.340252
v 0.180000 -0.340252 0.106038
v 0.180000 -0.442877 0.049736
v 0.120000 -0.442877 0.049736
v 0.120000 -0.340252 0.106038
v 0.180000 -0.032243 0.354931
v 0.180000 -0.123531 0.428198
v 0.120000 -0.123531 0.428198
v 0.120000 -0.032243 0.354931
v 0.180000 -0.273773 0.228175
v 0.180000 -0.390132 0.215432
v 0.120000 -0.390131 0.215432
v 0.120000 -0.273773 0.228175
v 0.180000 -0.300000 -0.000000
v 0.120000 -0.300000 -0.000000
v 0.180000 -0.277164 -0.114805
v 0.120000 -0.277164 -0.114805
v 0.180000 -0.212132 -0.212132
v 0.120000 -0.212132 -0.212132
v 0.180000 -0.114805 -0.277164
v 0.120000 -0.114805 -0.277164
v 0.180000 0.000000 -0.300000
v 0.120000 0.000000 -0.300000
v 0.180000 0.114805 -0.277164
v 0.120000 0.114805 -0.277164
v 0.180000 0.212132 -0.212132
v 0.120000 0.212132 -0.212132
v 0.180000 0.277164 -0.114805
v 0.120000 0.277164 -0.114805
v 0.050000 -0.277164 -0.114805
v 0.250000 -0.277164 -0.114805
v 0.050000 -0.212132 -0.212132
v 0.250000 -0.212132 -0.212132
v 0.050000 -0.114805 -0.277164
v 0.250000 -0.114805 -0.277164
v 0.050000 0.000000 -0.300000
v 0.250000 0.000000 -0.300000
v 0.050000 0.114805 -0.277164
v 0.250000 0.114805 -0.277164
v 0.050000 0.212132 -0.212132
v 0.250000 0.212132 -0.212132
v 0.050000 0.277164 -0.114805
v 0.250000 0.277164 -0.114805
v 0.050000 0.300000 0.000000
v 0.250000 0.300000 0.000000
v 0.180000 -0.354931 -0.032243
v 0.180000 -0.428198 -0.123532
v 0.120000 -0.428198 -0.123531
v 0.120000 -0.354931 -0.032243
v 0.180000 -0.315575 -0.165615
v 0.180000 -0.348330 -0.277992
v 0.120000 -0.348330 -0.277992
v 0.120000 -0.315575 -0.165615
v 0.180000 -0.228175 -0.273773
v 0.180000 -0.215432 -0.390132
v 0.120000 -0.215432 -0.390132
v 0.120000 -0.228175 -0.273773
v 0.180000 0.165615 -0.315575
v 0.180000 0.277992 -0.348330
v 0.120000 0.277992 -0.348330
v 0.120000 0.165615 -0.315575
v 0.180000 -0.106038 -0.340252
v 0.180000 -0.049736 -0.442877
v 0.120000 -0.049736 -0.442877
v 0.120000 -0.106038 -0.340252
v 0.180000 0.340252 -0.106038
v 0.180000 0.442877 -0.049736
v 0.120000 0.442877 -0.049736
v 0.120000 0.340252 -0.106038
v 0.180000 0.032243 -0.354931
v 0.180000 0.123531 -0.428198
v 0.120000 0.123531 -0.428198
v 0.120000 0.032243 -0.354931
v 0.180000 0.273773 -0.228175
v 0.180000 0.390132 -0.215432
v 0.120000 0.390132 -0.215432
v 0.120000 0.273773 -0.228175
vn -0.0000 0.1951 -0.9808
vn -0.0000 0.5556 -0.8315
vn -0.0000 0.8315 -0.5556
vn -0.0000 0.9808 -0.1951
vn -0.0000 0.9808 0.1951
vn -0.0000 0.8315 0.5556
vn -0.0000 0.5556 0.8315
vn -0.0000 0.1951 0.9808
vn -0.0000 -0.1951 0.9808
vn -0.0000 -0.5556 0.8315
vn -0.0000 -0.8315 0.5556
vn -0.0000 -0.9808 0.1951
vn -0.0000 -0.9808 -0.1951
vn -0.0000 -0.8315 -0.5556
vn -1.0000 -0.0000 -0.0000
vn -0.0000 -0.5556 -0.8315
vn -0.0000 -0.1951 -0.9808
vn 1.0000 -0.0000 -0.0000
vn -0.0000 0.7799 -0.6259
vn -0.0000 0.9600 -0.2798
vn -0.0000 0.9941 0.1089
vn -0.0000 0.8767 0.4810
vn -0.0000 0.6259 0.7799
vn -0.0000 0.2798 0.9600
vn -0.0000 -0.1089 0.9941
vn -0.0000 -0.4810 0.8767
vn -0.8510 0.3644 -0.3782
vn 0.8510 0.3644 -0.3782
vn -0.0000 -0.0577 0.9983
vn -0.0000 0.5062 -0.8624
vn 0.8510 0.4814 -0.2100
vn -0.8510 0.4814 -0.2100
vn -0.0000 -0.4353 0.9003
vn -0.0000 0.7977 -0.6030
vn 0.8510 0.5251 -0.0097
vn -0.8510 0.5251 -0.0097
vn -0.0000 -0.7467 0.6651
vn -0.0000 0.9678 -0.2519
vn 0.8510 0.2100 0.4814
vn -0.8510 0.2100 0.4814
vn -0.0000 -0.9003 -0.4353
vn -0.0000 0.6030 0.7977
vn 0.8510 0.4889 0.1920
vn -0.8510 0.4889 0.1920
vn -0.0000 -0.9444 0.3288
vn -0.0000 0.9905 0.1376
vn 0.8510 -0.1920 0.4889
vn -0.8510 -0.1920 0.4889
vn -0.0000 -0.3288 -0.9444
vn -0.0000 -0.1376 0.9905
vn 0.8510 0.3782 0.3644
vn -0.8510 0.3782 0.3644
vn -0.0000 -0.9983 -0.0577
vn -0.0000 0.8624 0.5062
vn 0.8510 0.0097 0.5251
vn -0.8510 0.0097 0.5251
vn -0.0000 -0.6651 -0.7467
vn -0.0000 0.2519 0.9678
vn -0.0000 -0.7799 0.6259
vn -0.0000 -0.9600 0.2798
vn -0.0000 -0.9941 -0.1089
vn -0.0000 -0.8767 -0.4810
vn -0.0000 -0.6259 -0.7799
vn -0.0000 -0.2798 -0.9601
vn -0.0000 0.1089 -0.9941
vn -0.0000 0.4810 -0.8767
vn -0.8510 -0.3644 0.3782
vn 0.8510 -0.3644 0.3782
vn -0.0000 0.0577 -0.9983
vn -0.0000 -0.5062 0.8624
vn 0.8510 -0.4814 0.2100
vn -0.8510 -0.4814 0.2100
vn -0.0000 0.4353 -0.9003
vn -0.0000 -0.7977 0.6030
vn 0.8510 -0.5251 0.0097
vn -0.8510 -0.5251 0.0097
vn -0.0000 0.7467 -0.6651
vn -0.0000 -0.9678 0.2519
vn 0.8510 -0.2100 -0.4814
vn -0.8510 -0.2100 -0.4814
vn -0.0000 0.9003 0.4353
vn -0.0000 -0.6030 -0.7977
vn 0.8510 -0.4889 -0.1920
vn -0.8510 -0.4889 -0.1920
vn -0.0000 0.9444 -0.3288
vn -0.0000 -0.9905 -0.1376
vn 0.8510 0.1920 -0.4889
vn -0.8510 0.1920 -0.4889
vn -0.0000 0.3288 0.9444
vn -0.0000 0.1376 -0.9905
vn 0.8510 -0.3782 -0.3644
vn -0.8510 -0.3782 -0.3644
vn -0.0000 0.9983 0.0577
vn -0.0000 -0.8624 -0.5062
vn 0.8510 -0.0097 -0.5251
vn -0.8510 -0.0097 -0.5251
vn -0.0000 0.6651 0.7467
vn -0.0000 -0.2519 -0.9678
vn -0.0000 -0.2798 -0.9600
vt 1.000000 0.500000
vt 1.000000 1.000000
vt 0.937500 1.000000
vt 0.937500 0.500000
vt 0.875000 1.000000
vt 0.875000 0.500000
vt 0.812500 1.000000
vt 0.812500 0.500000
vt 0.750000 1.000000
vt 0.750000 0.500000
vt 0.687500 1.000000
vt 0.687500 0.500000
vt 0.625000 1.000000
vt 0.625000 0.500000
vt 0.562500 1.000000
vt 0.562500 0.500000
vt 0.500000 1.000000
vt 0.500000 0.500000
vt 0.437500 1.000000
vt 0.437500 0.500000
vt 0.375000 1.000000
vt 0.375000 0.500000
vt 0.312500 1.000000
vt 0.312500 0.500000
vt 0.250000 1.000000
vt 0.250000 0.500000
vt 0.187500 1.000000
vt 0.187500 0.500000
vt 0.125000 1.000000
vt 0.125000 0.500000
vt 0.341844 0.471731
vt 0.250000 0.490000
vt 0.158156 0.471731
vt 0.080294 0.419706
vt 0.028269 0.341844
vt 0.010000 0.250000
vt 0.028269 0.158156
vt 0.080294 0.080294
vt 0.158156 0.028269
vt 0.250000 0.010000
vt 0.341844 0.028269
vt 0.419706 0.080294
vt 0.471731 0.158156
vt 0.490000 0.250000
vt 0.471731 0.341844
vt 0.419706 0.419706
vt 0.062500 1.000000
vt 0.062500 0.500000
vt 0.000000 1.000000
vt 0.000000 0.500000
vt 0.750000 0.490000
vt 0.841844 0.471731
vt 0.919706 0.419706
vt 0.971731 0.341844
vt 0.990000 0.250000
vt 0.971731 0.158156
vt 0.919706 0.080294
vt 0.841844 0.028269
vt 0.750000 0.010000
vt 0.658156 0.028269
vt 0.580294 0.080294
vt 0.528269 0.158156
vt 0.510000 0.250000
vt 0.528269 0.341844
vt 0.580294 0.419706
vt 0.658156 0.471731
s 0
f 1/1/1 2/2/1 4/3/1 3/4/1
f 3/4/2 4/3/2 6/5/2 5/6/2
f 5/6/3 6/5/3 8/7/3 7/8/3
f 7/8/4 8/7/4 10/9/4 9/10/4
f 9/10/5 10/9/5 12/11/5 11/12/5
f 11/12/6 12/11/6 14/13/6 13/14/6
f 13/14/7 14/13/7 16/15/7 15/16/7
f 15/16/8 16/15/8 18/17/8 17/18/8
f 17/18/9 18/17/9 20/19/9 19/20/9
f 19/20/10 20/19/10 22/21/10 21/22/10
f 21/22/11 22/21/11 24/23/11 23/24/11
f 23/24/12 24/23/12 26/25/12 25/26/12
f 25/26/13 26/25/13 28/27/13 27/28/13
f 27/28/14 28/27/14 30/29/14 29/30/14
f 4/31/15 2/32/15 32/33/15 30/34/15 28/35/15 26/36/15 24/37/15 22/38/15 20/39/15 18/40/15 16/41/15 14/42/15 12/43/15 10/44/15 8/45/15 6/46/15
f 29/30/16 30/29/16 32/47/16 31/48/16
f 31/48/17 32/47/17 2/49/17 1/50/17
f 1/51/18 3/52/18 5/53/18 7/54/18 9/55/18 11/56/18 13/57/18 15/58/18 17/59/18 19/60/18 21/61/18 23/62/18 25/63/18 27/64/18 29/65/18 31/66/18
f 33/1/1 34/2/1 36/3/1 35/4/1
f 35/4/2 36/3/2 38/5/2 37/6/2
f 37/6/3 38/5/3 40/7/3 39/8/3
f 39/8/4 40/7/4 42/9/4 41/10/4
f 41/10/5 42/9/5 44/11/5 43/12/5
f 43/12/6 44/11/6 46/13/6 45/14/6
f 45/14/7 46/13/7 48/15/7 47/16/7
f 47/16/8 48/15/8 50/17/8 49/18/8
f 49/18/9 50/17/9 52/19/9 51/20/9
f 51/20/10 52/19/10 54/21/10 53/22/10
f 53/22/11 54/21/11 56/23/11 55/24/11
f 55/24/12 56/23/12 58/25/12 57/26/12
f 57/26/13 58/25/13 60/27/13 59/28/13
f 59/28/14 60/27/14 62/29/14 61/30/14
f 36/31/15 34/32/15 64/33/15 62/34/15 60/35/15 58/36/15 56/37/15 54/38/15 52/39/15 50/40/15 48/41/15 46/42/15 44/43/15 42/44/15 40/45/15 38/46/15
f 61/30/16 62/29/16 64/47/16 63/48/16
f 63/48/17 64/47/17 34/49/17 33/50/17
f 33/51/18 35/52/18 37/53/18 39/54/18 41/55/18 43/56/18 45/57/18 47/58/18 49/59/18 51/60/18 53/61/18 55/62/18 57/63/18 59/64/18 61/65/18 63/66/18
f 97/10/19 100/9/19 99/11/19 98/12/19
f 101/12/20 104/11/20 103/13/20 102/14/20
f 105/14/21 108/13/21 107/15/21 106/16/21
f 113/16/22 116/15/22 115/17/22 114/18/22
f 121/18/23 124/17/23 123/19/23 122/20/23
f 109/20/24 112/19/24 111/21/24 110/22/24
f 125/22/25 128/21/25 127/23/25 126/24/25
f 117/24/26 120/23/26 119/25/26 118/26/26
f 99/11/27 100/9/27 66/9/27 81/11/27
f 97/10/28 98/12/28 82/12/28 65/10/28
f 98/12/29 99/11/29 81/11/29 82/12/29
f 100/9/30 97/10/30 65/10/30 66/9/30
f 101/12/31 102/14/31 84/14/31 67/12/31
f 103/13/32 104/11/32 68/11/32 83/13/32
f 102/14/33 103/13/33 83/13/33 84/14/33
f 104/11/34 101/12/34 67/12/34 68/11/34
f 105/14/35 106/16/35 86/16/35 69/14/35
f 107/15/36 108/13/36 70/13/36 85/15/36
f 106/16/37 107/15/37 85/15/37 86/16/37
f 108/13/38 105/14/38 69/14/38 70/13/38
f 109/20/39 110/22/39 92/22/39 75/20/39
f 111/21/40 112/19/40 76/19/40 91/21/40
f 110/22/41 111/21/41 91/21/41 92/22/41
f 112/19/42 109/20/42 75/20/42 76/19/42
f 113/16/43 114/18/43 88/18/43 71/16/43
f 115/17/44 116/15/44 72/15/44 87/17/44
f 114/18/45 115/17/45 87/17/45 88/18/45
f 116/15/46 113/16/46 71/16/46 72/15/46
f 117/24/47 118/26/47 96/26/47 79/24/47
f 119/25/48 120/23/48 80/23/48 95/25/48
f 118/26/49 119/25/49 95/25/49 96/26/49
f 120/23/50 117/24/50 79/24/50 80/23/50
f 121/18/51 122/20/51 90/20/51 73/18/51
f 123/19/52 124/17/52 74/17/52 89/19/52
f 122/20/53 123/19/53 89/19/53 90/20/53
f 124/17/54 121/18/54 73/18/54 74/17/54
f 125/22/55 126/24/55 94/24/55 77/22/55
f 127/23/56 128/21/56 78/21/56 93/23/56
f 126/24/57 127/23/57 93/23/57 94/24/57
f 128/21/58 125/22/58 77/22/58 78/21/58
f 161/10/59 164/9/59 163/11/59 162/12/59
f 165/12/60 168/11/60 167/13/60 166/14/60
f 169/14/61 172/13/61 171/15/61 170/16/61
f 177/16/62 180/15/62 179/17/62 178/18/62
f 185/18/63 188/17/63 187/19/63 186/20/63
f 173/20/64 176/19/64 175/21/64 174/22/64
f 189/22/65 192/21/65 191/23/65 190/24/65
f 181/24/66 184/23/66 183/25/66 182/26/66
f 163/11/67 164/9/67 130/9/67 145/11/67
f 161/10/68 162/12/68 146/12/68 129/10/68
f 162/12/69 163/11/69 145/11/69 146/12/69
f 164/9/70 161/10/70 129/10/70 130/9/70
f 165/12/71 166/14/71 148/14/71 131/12/71
f 167/13/72 168/11/72 132/11/72 147/13/72
f 166/14/73 167/13/73 147/13/73 148/14/73
f 168/11/74 165/12/74 131/12/74 132/11/74
f 169/14/75 170/16/75 150/16/75 133/14/75
f 171/15/76 172/13/76 134/13/76 149/15/76
f 170/16/77 171/15/77 149/15/77 150/16/77
f 172/13/78 169/14/78 133/14/78 134/13/78
f 173/20/79 174/22/79 156/22/79 139/20/79
f 175/21/80 176/19/80 140/19/80 155/21/80
f 174/22/81 175/21/81 155/21/81 156/22/81
f 176/19/82 173/20/82 139/20/82 140/19/82
f 177/16/83 178/18/83 152/18/83 135/16/83
f 179/17/84 180/15/84 136/15/84 151/17/84
f 178/18/85 179/17/85 151/17/85 152/18/85
f 180/15/86 177/16/86 135/16/86 136/15/86
f 181/24/87 182/26/87 160/26/87 143/24/87
f 183/25/88 184/23/88 144/23/88 159/25/88
f 182/26/89 183/25/89 159/25/89 160/26/89
f 184/23/90 181/24/90 143/24/90 144/23/90
f 185/18/91 186/20/91 154/20/91 137/18/91
f 187/19/92 188/17/92 138/17/92 153/19/92
f 186/20/93 187/19/93 153/19/93 154/20/93
f 188/17/94 185/18/94 137/18/94 138/17/94
f 189/22/95 190/24/95 158/24/95 141/22/95
f 191/23/96 192/21/96 142/21/96 157/23/96
f 190/24/97 191/23/97 157/23/97 158/24/97
f 192/21/98 189/22/98 141/22/98 142/21/98
f 193/1/1 194/2/1 196/3/1 195/4/1
f 195/4/2 196/3/2 198/5/2 197/6/2
f 197/6/3 198/5/3 200/7/3 199/8/3
f 199/8/4 200/7/4 202/9/4 201/10/4
f 201/10/5 202/9/5 204/11/5 203/12/5
f 203/12/6 204/11/6 206/13/6 205/14/6
f 205/14/7 206/13/7 208/15/7 207/16/7
f 207/16/8 208/15/8 210/17/8 209/18/8
f 209/18/9 210/17/9 212/19/9 211/20/9
f 211/20/10 212/19/10 214/21/10 213/22/10
f 213/22/11 214/21/11 216/23/11 215/24/11
f 215/24/12 216/23/12 218/25/12 217/26/12
f 217/26/13 218/25/13 220/27/13 219/28/13
f 219/28/14 220/27/14 222/29/14 221/30/14
f 196/31/15 194/32/15 224/33/15 222/34/15 220/35/15 218/36/15 216/37/15 214/38/15 212/39/15 210/40/15 208/41/15 206/42/15 204/43/15 202/44/15 200/45/15 198/46/15
f 221/30/16 222/29/16 224/47/16 223/48/16
f 223/48/17 224/47/17 194/49/17 193/50/17
f 193/51/18 195/52/18 197/53/18 199/54/18 201/55/18 203/56/18 205/57/18 207/58/18 209/59/18 211/60/18 213/61/18 215/62/18 217/63/18 219/64/18 221/65/18 223/66/18
f 257/10/19 260/9/19 259/11/19 258/12/19
f 261/12/20 264/11/20 263/13/20 262/14/20
f 265/14/21 268/13/21 267/15/21 266/16/21
f 273/16/22 276/15/22 275/17/22 274/18/22
f 281/18/23 284/17/23 283/19/23 282/20/23
f 269/20/24 272/19/24 271/21/24 270/22/24
f 285/22/25 288/21/25 287/23/25 286/24/25
f 277/24/26 280/23/26 279/25/26 278/26/26
f 259/11/27 260/9/27 226/9/27 241/11/27
f 257/10/28 258/12/28 242/12/28 225/10/28
f 258/12/29 259/11/29 241/11/29 242/12/29
f 260/9/30 257/10/30 225/10/30 226/9/30
f 261/12/31 262/14/31 244/14/31 227/12/31
f 263/13/32 264/11/32 228/11/32 243/13/32
f 262/14/33 263/13/33 243/13/33 244/14/33
f 264/11/34 261/12/34 227/12/34 228/11/34
f 265/14/35 266/16/35 246/16/35 229/14/35
f 267/15/36 268/13/36 230/13/36 245/15/36
f 266/16/37 267/15/37 245/15/37 246/16/37
f 268/13/38 265/14/38 229/14/38 230/13/38
f 269/20/39 270/22/39 252/22/39 235/20/39
f 271/21/40 272/19/40 236/19/40 251/21/40
f 270/22/41 271/21/41 251/21/41 252/22/41
f 272/19/42 269/20/42 235/20/42 236/19/42
f 273/16/43 274/18/43 248/18/43 231/16/43
f 275/17/44 276/15/44 232/15/44 247/17/44
f 274/18/45 275/17/45 247/17/45 248/18/45
f 276/15/46 273/16/46 231/16/46 232/15/46
f 277/24/47 278/26/47 256/26/47 239/24/47
f 279/25/48 280/23/48 240/23/48 255/25/48
f 278/26/49 279/25/49 255/25/49 256/26/49
f 280/23/50 277/24/50 239/24/50 240/23/50
f 281/18/51 282/20/51 250/20/51 233/18/51
f 283/19/52 284/17/52 234/17/52 249/19/52
f 282/20/53 283/19/53 249/19/53 250/20/53
f 284/17/54 281/18/54 233/18/54 234/17/54
f 285/22/55 286/24/55 254/24/55 237/22/55
f 287/23/56 288/21/56 238/21/56 253/23/56
f 286/24/57 287/23/57 253/23/57 254/24/57
f 288/21/58 285/22/58 237/22/58 238/21/58
f 321/10/59 324/9/59 323/11/59 322/12/59
f 325/12/60 328/11/60 327/13/60 326/14/60
f 329/14/61 332/13/61 331/15/61 330/16/61
f 337/16/62 340/15/62 339/17/62 338/18/62
f 345/18/63 348/17/63 347/19/63 346/20/63
f 333/20/99 336/19/99 335/21/99 334/22/99
f 349/22/65 352/21/65 351/23/65 350/24/65
f 341/24/66 344/23/66 343/25/66 342/26/66
f 323/11/67 324/9/67 290/9/67 305/11/67
f 321/10/68 322/12/68 306/12/68 289/10/68
f 322/12/69 323/11/69 305/11/69 306/12/69
f 324/9/70 321/10/70 289/10/70 290/9/70
f 325/12/71 326/14/71 308/14/71 291/12/71
f 327/13/72 328/11/72 292/11/72 307/13/72
f 326/14/73 327/13/73 307/13/73 308/14/73
f 328/11/74 325/12/74 291/12/74 292/11/74
f 329/14/75 330/16/75 310/16/75 293/14/75
f 331/15/76 332/13/76 294/13/76 309/15/76
f 330/16/77 331/15/77 309/15/77 310/16/77
f 332/13/78 329/14/78 293/14/78 294/13/78
f 333/20/79 334/22/79 316/22/79 299/20/79
f 335/21/80 336/19/80 300/19/80 315/21/80
f 334/22/81 335/21/81 315/21/81 316/22/81
f 336/19/82 333/20/82 299/20/82 300/19/82
f 337/16/83 338/18/83 312/18/83 295/16/83
f 339/17/84 340/15/84 296/15/84 311/17/84
f 338/18/85 339/17/85 311/17/85 312/18/85
f 340/15/86 337/16/86 295/16/86 296/15/86
f 341/24/87 342/26/87 320/26/87 303/24/87
f 343/25/88 344/23/88 304/23/88 319/25/88
f 342/26/89 343/25/89 319/25/89 320/26/89
f 344/23/90 341/24/90 303/24/90 304/23/90
f 345/18/91 346/20/91 314/20/91 297/18/91
f 347/19/92 348/17/92 298/17/92 313/19/92
f 346/20/93 347/19/93 313/19/93 314/20/93
f 348/17/94 345/18/94 297/18/94 298/17/94
f 349/22/95 350/24/95 318/24/95 301/22/95
f 351/23/96 352/21/96 302/21/96 317/23/96
f 350/24/97 351/23/97 317/23/97 318/24/97
f 352/21/98 349/22/98 301/22/98 302/21/98
