# Blender 3.6.2
# www.blender.org
mtllib Crystal5.mtl
o Cylinder
v 0.000000 -3.000000 -1.000000
v 0.000000 3.000000 -1.000000
v 0.951057 -3.000000 -0.309017
v 0.951057 3.000000 -0.309017
v 0.587785 -3.000000 0.809017
v 0.587785 3.000000 0.809017
v -0.587785 -3.000000 0.809017
v -0.587785 3.000000 0.809017
v -0.951057 -3.000000 -0.309017
v -0.951057 3.000000 -0.309017
v 0.000000 5.000000 0.000000
v 0.000000 -5.000000 -0.000000
vn 0.5878 -0.0000 -0.8090
vn 0.9511 -0.0000 0.3090
vn -0.0000 -0.0000 1.0000
vn -0.8817 0.3750 0.2865
vn -0.9511 -0.0000 0.3090
vn -0.5878 -0.0000 -0.8090
vn 0.8817 -0.3750 0.2865
vn 0.5449 -0.3750 -0.7500
vn 0.8817 0.3750 0.2865
vn -0.5449 0.3750 -0.7500
vn 0.5449 0.3750 -0.7500
vn -0.0000 0.3750 0.9270
vn -0.5449 -0.3750 -0.7500
vn -0.0000 -0.3750 0.9270
vn -0.8817 -0.3750 0.2865
vt 1.000000 0.500000
vt 1.000000 1.000000
vt 0.800000 1.000000
vt 0.800000 0.500000
vt 0.600000 1.000000
vt 0.600000 0.500000
vt 0.400000 1.000000
vt 0.400000 0.500000
vt 0.200000 1.000000
vt 0.200000 0.500000
vt 0.000000 1.000000
vt 0.000000 0.500000
s 0
f 1/1/1 2/2/1 4/3/1 3/4/1
f 3/4/2 4/3/2 6/5/2 5/6/2
f 5/6/3 6/5/3 8/7/3 7/8/3
f 10/9/4 8/7/4 11/9/4
f 7/8/5 8/7/5 10/9/5 9/10/5
f 9/10/6 10/9/6 2/11/6 1/12/6
f 3/4/7 5/6/7 12/4/7
f 1/1/8 3/4/8 12/1/8
f 6/5/9 4/3/9 11/5/9
f 2/11/10 10/9/10 11/11/10
f 4/3/11 2/2/11 11/3/11
f 8/7/12 6/5/12 11/7/12
f 9/10/13 1/12/13 12/10/13
f 5/6/14 7/8/14 12/6/14
f 7/8/15 9/10/15 12/8/15
