# Blender 3.6.4
# www.blender.org
mtllib ICBM.mtl
o Cylinder.004
v -11.000000 4.138202 20.000000
v -11.000000 3.500000 -20.000000
v -9.522154 4.432165 20.000000
v -9.277925 3.842543 -20.000000
v -8.269297 5.269297 20.000000
v -7.818020 4.818020 -20.000000
v -7.432164 6.522154 20.000000
v -6.842542 6.277925 -20.000000
v -7.138202 8.000000 20.000000
v -6.500000 8.000000 -20.000000
v -7.432164 9.477846 20.000000
v -6.842542 9.722075 -20.000000
v -8.269297 10.730703 20.000000
v -7.818020 11.181980 -20.000000
v -9.522154 11.567835 20.000000
v -9.277925 12.157457 -20.000000
v -11.000000 11.861797 20.000000
v -11.000000 12.500000 -20.000000
v -12.477846 11.567835 20.000000
v -12.722075 12.157457 -20.000000
v -13.730703 10.730703 20.000000
v -14.181980 11.181980 -20.000000
v -14.567836 9.477846 20.000000
v -15.157457 9.722075 -20.000000
v -14.861797 8.000000 20.000000
v -15.500000 8.000000 -20.000000
v -14.567836 6.522154 20.000000
v -15.157457 6.277925 -20.000000
v -13.730703 5.269297 20.000000
v -14.181980 4.818020 -20.000000
v -12.477846 4.432164 20.000000
v -12.722075 3.842543 -20.000000
v -11.000000 3.500000 20.000000
v -9.277925 3.842542 20.000000
v -7.818020 4.818019 20.000000
v -6.842542 6.277924 20.000000
v -6.500000 8.000000 20.000000
v -6.842542 9.722075 20.000000
v -7.818020 11.181980 20.000000
v -9.277925 12.157457 20.000000
v -11.000000 12.500000 20.000000
v -12.722075 12.157457 20.000000
v -14.181980 11.181980 20.000000
v -15.157457 9.722075 20.000000
v -15.500000 8.000000 20.000000
v -15.157457 6.277924 20.000000
v -14.181980 4.818019 20.000000
v -12.722075 3.842542 20.000000
v -11.000000 4.138202 15.000000
v -9.522154 4.432164 15.000000
v -8.269297 5.269296 15.000000
v -7.432164 6.522153 15.000000
v -7.138202 7.999999 15.000000
v -7.432164 9.477845 15.000000
v -8.269297 10.730702 15.000000
v -9.522154 11.567835 15.000000
v -11.000000 11.861797 15.000000
v -12.477846 11.567835 15.000000
v -13.730703 10.730702 15.000000
v -14.567836 9.477845 15.000000
v -14.861797 7.999999 15.000000
v -14.567836 6.522153 15.000000
v -13.730703 5.269296 15.000000
v -12.477846 4.432164 15.000000
v -11.000000 5.750000 -30.000000
v -10.138962 5.921271 -30.000000
v -9.409010 6.409010 -30.000000
v -8.921271 7.138963 -30.000000
v -8.750000 8.000000 -30.000000
v -8.921271 8.861038 -30.000000
v -9.409010 9.590990 -30.000000
v -10.138962 10.078729 -30.000000
v -11.000000 10.250000 -30.000000
v -11.861038 10.078729 -30.000000
v -12.590990 9.590990 -30.000000
v -13.078729 8.861038 -30.000000
v -13.250000 8.000000 -30.000000
v -13.078729 7.138963 -30.000000
v -12.590990 6.409010 -30.000000
v -11.861038 5.921271 -30.000000
v -11.000000 6.875001 -34.000000
v -10.204505 7.204506 -34.000000
v -9.875000 8.000001 -34.000000
v -10.204505 8.795496 -34.000000
v -11.000000 9.125001 -34.000000
v -11.795495 8.795496 -34.000000
v -12.125000 8.000001 -34.000000
v -11.795495 7.204506 -34.000000
v -11.000000 7.662501 -35.000000
v -11.000000 8.000001 -40.000000
v -10.662500 8.000001 -35.000000
v -11.000000 8.337501 -35.000000
v -11.337500 8.000001 -35.000000
v -11.000000 9.424998 15.000000
v -10.999999 8.749998 20.000000
v -11.477297 9.622702 15.000000
v -11.954594 9.145404 20.000000
v -11.675000 10.099998 15.000000
v -12.349999 10.099998 20.000000
v -11.477297 10.577295 15.000000
v -11.954594 11.054592 20.000000
v -11.000000 10.774999 15.000000
v -11.000000 11.449999 20.000000
v -10.522703 10.577295 15.000000
v -10.045405 11.054592 20.000000
v -10.325000 10.099998 15.000000
v -9.650000 10.099998 20.000000
v -10.522703 9.622702 15.000000
v -10.045405 9.145405 20.000000
v -13.100000 7.325000 15.000000
v -13.099999 6.650000 20.000000
v -13.577297 7.522703 15.000000
v -14.054594 7.045406 20.000000
v -13.775001 8.000000 15.000000
v -14.450000 8.000000 20.000000
v -13.577297 8.477297 15.000000
v -14.054594 8.954594 20.000000
v -13.100000 8.675000 15.000000
v -13.100000 9.350000 20.000000
v -12.622704 8.477297 15.000000
v -12.145406 8.954595 20.000000
v -12.425000 8.000000 15.000000
v -11.750000 8.000000 20.000000
v -12.622704 7.522703 15.000000
v -12.145406 7.045406 20.000000
v -11.000000 5.225001 15.000000
v -10.999999 4.550002 20.000000
v -11.477297 5.422705 15.000000
v -11.954594 4.945407 20.000000
v -11.675000 5.900002 15.000000
v -12.349999 5.900002 20.000000
v -11.477297 6.377298 15.000000
v -11.954594 6.854596 20.000000
v -11.000000 6.575002 15.000000
v -11.000000 7.250001 20.000000
v -10.522703 6.377298 15.000000
v -10.045405 6.854596 20.000000
v -10.325000 5.900002 15.000000
v -9.650000 5.900002 20.000000
v -10.522703 5.422705 15.000000
v -10.045405 4.945407 20.000000
v -8.900000 7.325000 15.000000
v -8.899999 6.650000 20.000000
v -9.377296 7.522703 15.000000
v -9.854593 7.045406 20.000000
v -9.575000 8.000000 15.000000
v -10.249999 8.000000 20.000000
v -9.377296 8.477297 15.000000
v -9.854593 8.954594 20.000000
v -8.900000 8.675000 15.000000
v -8.900000 9.350000 20.000000
v -8.422703 8.477297 15.000000
v -7.945405 8.954595 20.000000
v -8.224999 8.000000 15.000000
v -7.549999 8.000000 20.000000
v -8.422703 7.522703 15.000000
v -7.945405 7.045406 20.000000
vn -0.0000 -1.0000 -0.0000
vn -0.0000 -0.9940 -0.1090
vn 0.3804 -0.9184 -0.1090
vn 0.3827 -0.9239 -0.0000
vn 0.7029 -0.7029 -0.1090
vn 0.7071 -0.7071 -0.0000
vn 0.9184 -0.3804 -0.1090
vn 0.9239 -0.3827 -0.0000
vn 0.9940 -0.0000 -0.1090
vn 1.0000 -0.0000 -0.0000
vn 0.9184 0.3804 -0.1090
vn 0.9239 0.3827 -0.0000
vn 0.7029 0.7029 -0.1090
vn 0.7071 0.7071 -0.0000
vn 0.3804 0.9184 -0.1090
vn 0.3827 0.9239 -0.0000
vn -0.0000 0.9940 -0.1090
vn -0.0000 1.0000 -0.0000
vn -0.3804 0.9184 -0.1090
vn -0.3827 0.9239 -0.0000
vn -0.7029 0.7029 -0.1090
vn -0.7071 0.7071 -0.0000
vn -0.9184 0.3804 -0.1090
vn -0.9239 0.3827 -0.0000
vn -0.9940 -0.0000 -0.1090
vn -1.0000 -0.0000 -0.0000
vn -0.9184 -0.3804 -0.1090
vn -0.9239 -0.3827 -0.0000
vn -0.7029 -0.7029 -0.1090
vn -0.7071 -0.7071 -0.0000
vn 0.9697 -0.0000 -0.2444
vn 0.8957 0.3710 -0.2451
vn -0.3804 -0.9184 -0.1090
vn -0.3827 -0.9239 -0.0000
vn -0.0000 -0.0000 1.0000
vn -0.3710 0.8957 -0.2451
vn -0.6857 0.6857 -0.2444
vn -0.6857 -0.6857 -0.2444
vn -0.3710 -0.8957 -0.2451
vn 0.6857 -0.6857 -0.2444
vn 0.8957 -0.3710 -0.2451
vn 0.3710 0.8957 -0.2451
vn -0.0000 0.9697 -0.2444
vn -0.0000 -0.9697 -0.2444
vn 0.3710 -0.8957 -0.2451
vn -0.9697 -0.0000 -0.2444
vn -0.8957 -0.3710 -0.2451
vn 0.6857 0.6857 -0.2444
vn -0.8957 0.3710 -0.2451
vn 0.6294 -0.6294 -0.4558
vn -0.0000 -0.8917 -0.4526
vn -0.6294 -0.6294 -0.4558
vn -0.8917 -0.0000 -0.4526
vn -0.6294 0.6294 -0.4558
vn -0.0000 0.8917 -0.4526
vn 0.6294 0.6294 -0.4558
vn 0.8917 -0.0000 -0.4526
vn -0.6062 -0.4634 -0.6463
vn -0.4634 -0.6062 -0.6463
vn 0.6062 0.4634 -0.6463
vn 0.4634 0.6062 -0.6463
vn -0.6062 0.4634 -0.6463
vn 0.6062 -0.4634 -0.6463
vn -0.4634 0.6062 -0.6463
vn 0.4634 -0.6062 -0.6463
vn -0.7063 -0.7063 -0.0477
vn -0.7063 0.7063 -0.0477
vn 0.7063 -0.7063 -0.0477
vn 0.7063 0.7063 -0.0477
vn -0.3797 -0.9168 -0.1238
vn -0.9168 -0.3797 -0.1238
vn -0.9168 0.3797 -0.1238
vn -0.3797 0.9168 -0.1238
vn 0.3797 0.9168 -0.1238
vn 0.9168 0.3797 -0.1238
vn 0.9168 -0.3797 -0.1238
vn 0.3797 -0.9168 -0.1238
vn -0.0000 -0.0000 -1.0000
vt 1.000000 0.500000
vt 1.000000 1.000000
vt 0.937500 1.000000
vt 0.937500 0.500000
vt 0.875000 1.000000
vt 0.875000 0.500000
vt 0.812500 1.000000
vt 0.812500 0.500000
vt 0.750000 1.000000
vt 0.750000 0.500000
vt 0.687500 1.000000
vt 0.687500 0.500000
vt 0.625000 1.000000
vt 0.625000 0.500000
vt 0.562500 1.000000
vt 0.562500 0.500000
vt 0.500000 1.000000
vt 0.500000 0.500000
vt 0.437500 1.000000
vt 0.437500 0.500000
vt 0.375000 1.000000
vt 0.375000 0.500000
vt 0.312500 1.000000
vt 0.312500 0.500000
vt 0.250000 1.000000
vt 0.250000 0.500000
vt 0.187500 1.000000
vt 0.187500 0.500000
vt 0.125000 1.000000
vt 0.125000 0.500000
vt 0.062500 1.000000
vt 0.062500 0.500000
vt 0.000000 1.000000
vt 0.000000 0.500000
vt 0.603627 0.310630
vt 0.637971 0.362029
vt 0.810630 0.396373
vt 0.750000 0.408433
vt 0.750000 0.490000
vt 0.841844 0.471731
vt 0.862029 0.362029
vt 0.919706 0.419706
vt 0.896373 0.310630
vt 0.971731 0.341844
vt 0.908433 0.250000
vt 0.990000 0.250000
vt 0.896373 0.189370
vt 0.971731 0.158156
vt 0.862029 0.137971
vt 0.919706 0.080294
vt 0.810630 0.103627
vt 0.841844 0.028269
vt 0.750000 0.091567
vt 0.750000 0.010000
vt 0.689370 0.103627
vt 0.658156 0.028269
vt 0.637971 0.137971
vt 0.580294 0.080294
vt 0.603627 0.189370
vt 0.528269 0.158156
vt 0.591567 0.250000
vt 0.510000 0.250000
vt 0.528269 0.341844
vt 0.580294 0.419706
vt 0.689370 0.396373
vt 0.658156 0.471731
vt 0.000000 0.000000
vt 0.419706 0.419706
vt 0.250000 0.490000
vt 0.080294 0.419706
vt 0.010000 0.250000
vt 0.080294 0.080294
vt 0.250000 0.010000
vt 0.419706 0.080294
vt 0.490000 0.250000
s 1
usemtl Material.005
f 33/1/1 2/2/2 4/3/3 34/4/4
f 34/4/4 4/3/3 6/5/5 35/6/6
f 35/6/6 6/5/5 8/7/7 36/8/8
f 36/8/8 8/7/7 10/9/9 37/10/10
f 37/10/10 10/9/9 12/11/11 38/12/12
f 38/12/12 12/11/11 14/13/13 39/14/14
f 39/14/14 14/13/13 16/15/15 40/16/16
f 40/16/16 16/15/15 18/17/17 41/18/18
f 41/18/18 18/17/17 20/19/19 42/20/20
f 42/20/20 20/19/19 22/21/21 43/22/22
f 43/22/22 22/21/21 24/23/23 44/24/24
f 44/24/24 24/23/23 26/25/25 45/26/26
f 45/26/26 26/25/25 28/27/27 46/28/28
f 46/28/28 28/27/27 30/29/29 47/30/30
f 47/30/30 30/29/29 32/31/33 48/32/34
f 48/32/34 32/31/33 2/33/2 33/34/1
f 27/35/12 29/36/14 63/36/14 62/35/12
f 3/37/35 1/38/35 33/39/35 34/40/35
f 5/41/35 3/37/35 34/40/35 35/42/35
f 7/43/35 5/41/35 35/42/35 36/44/35
f 9/45/35 7/43/35 36/44/35 37/46/35
f 11/47/35 9/45/35 37/46/35 38/48/35
f 13/49/35 11/47/35 38/48/35 39/50/35
f 15/51/35 13/49/35 39/50/35 40/52/35
f 17/53/35 15/51/35 40/52/35 41/54/35
f 19/55/35 17/53/35 41/54/35 42/56/35
f 21/57/35 19/55/35 42/56/35 43/58/35
f 23/59/35 21/57/35 43/58/35 44/60/35
f 25/61/35 23/59/35 44/60/35 45/62/35
f 27/35/35 25/61/35 45/62/35 46/63/35
f 29/36/35 27/35/35 46/63/35 47/64/35
f 31/65/35 29/36/35 47/64/35 48/66/35
f 1/38/35 31/65/35 48/66/35 33/39/35
f 49/38/35 50/37/35 51/41/35 52/43/35 53/45/35 54/47/35 55/49/35 56/51/35 57/53/35 58/55/35 59/57/35 60/59/35 61/61/35 62/35/35 63/36/35 64/65/35
f 13/49/30 15/51/34 56/51/34 55/49/30
f 29/36/14 31/65/16 64/65/16 63/36/14
f 15/51/34 17/53/1 57/53/1 56/51/34
f 1/38/18 3/37/20 50/37/20 49/38/18
f 31/65/16 1/38/18 49/38/18 64/65/16
f 17/53/1 19/55/4 58/55/4 57/53/1
f 3/37/20 5/41/22 51/41/22 50/37/20
f 19/55/4 21/57/6 59/57/6 58/55/4
f 5/41/22 7/43/24 52/43/24 51/41/22
f 21/57/6 23/59/8 60/59/8 59/57/6
f 7/43/24 9/45/26 53/45/26 52/43/24
f 23/59/8 25/61/10 61/61/10 60/59/8
f 9/45/26 11/47/28 54/47/28 53/45/26
f 25/61/10 27/35/12 62/35/12 61/61/10
f 11/47/28 13/49/30 55/49/30 54/47/28
f 66/67/45 82/67/50 67/67/40
f 66/67/45 65/67/44 81/67/51
f 80/67/39 81/67/51 65/67/44
f 80/67/39 79/67/38 88/67/52
f 79/67/38 78/67/47 88/67/52
f 78/67/47 87/67/53 88/67/52
f 77/67/46 76/67/49 87/67/53
f 76/67/49 86/67/54 87/67/53
f 75/67/37 74/67/36 86/67/54
f 74/67/36 85/67/55 86/67/54
f 72/67/42 85/67/55 73/67/43
f 72/67/42 71/67/48 84/67/56
f 70/67/32 84/67/56 71/67/48
f 70/67/32 69/67/31 83/67/57
f 68/67/41 83/67/57 69/67/31
f 68/67/41 67/67/40 82/67/50
f 66/67/45 81/67/51 82/67/50
f 80/67/39 88/67/52 81/67/51
f 78/67/47 77/67/46 87/67/53
f 76/67/49 75/67/37 86/67/54
f 74/67/36 73/67/43 85/67/55
f 72/67/42 84/67/56 85/67/55
f 70/67/32 83/67/57 84/67/56
f 68/67/41 82/67/50 83/67/57
usemtl Material.014
f 12/11/11 10/9/9 69/9/31 70/11/32
f 22/21/21 20/19/19 74/19/36 75/21/37
f 32/31/33 30/29/29 79/29/38 80/31/39
f 8/7/7 6/5/5 67/5/40 68/7/41
f 18/17/17 16/15/15 72/15/42 73/17/43
f 4/3/3 2/2/2 65/2/44 66/3/45
f 28/27/27 26/25/25 77/25/46 78/27/47
f 14/13/13 12/11/11 70/11/32 71/13/48
f 24/23/23 22/21/21 75/21/37 76/23/49
f 2/33/2 32/31/33 80/31/39 65/33/44
f 10/9/9 8/7/7 68/7/41 69/9/31
f 20/19/19 18/17/17 73/17/43 74/19/36
f 30/29/29 28/27/27 78/27/47 79/29/38
f 6/5/5 4/3/3 66/3/45 67/5/40
f 16/15/15 14/13/13 71/13/48 72/15/42
f 26/25/25 24/23/23 76/23/49 77/25/46
f 88/67/52 93/67/58 89/67/59
f 84/67/56 83/67/57 91/67/60
f 84/67/56 92/67/61 85/67/55
f 86/67/54 93/67/62 87/67/53
f 83/67/57 82/67/50 91/67/63
f 81/67/51 88/67/52 89/67/59
f 88/67/52 87/67/53 93/67/58
f 86/67/54 85/67/55 92/67/64
f 82/67/50 89/67/65 91/67/63
f 84/67/56 91/67/60 92/67/61
f 86/67/54 92/67/64 93/67/62
f 82/67/50 81/67/51 89/67/65
f 89/67/66 93/67/66 90/67/66
f 93/67/67 92/67/67 90/67/67
f 91/67/68 89/67/68 90/67/68
f 92/67/69 91/67/69 90/67/69
usemtl Material.002
f 94/1/70 95/2/70 97/5/70 96/6/70
f 96/6/71 97/5/71 99/9/71 98/10/71
f 98/10/72 99/9/72 101/13/72 100/14/72
f 100/14/73 101/13/73 103/17/73 102/18/73
f 102/18/74 103/17/74 105/21/74 104/22/74
f 104/22/75 105/21/75 107/25/75 106/26/75
f 106/26/76 107/25/76 109/29/76 108/30/76
f 108/30/77 109/29/77 95/33/77 94/34/77
f 94/39/78 96/42/78 98/46/78 100/50/78 102/54/78 104/58/78 106/62/78 108/64/78
f 110/1/70 111/2/70 113/5/70 112/6/70
f 112/6/71 113/5/71 115/9/71 114/10/71
f 114/10/72 115/9/72 117/13/72 116/14/72
f 116/14/73 117/13/73 119/17/73 118/18/73
f 118/18/74 119/17/74 121/21/74 120/22/74
f 120/22/75 121/21/75 123/25/75 122/26/75
f 122/26/76 123/25/76 125/29/76 124/30/76
f 124/30/77 125/29/77 111/33/77 110/34/77
f 110/39/78 112/42/78 114/46/78 116/50/78 118/54/78 120/58/78 122/62/78 124/64/78
f 126/1/70 127/2/70 129/5/70 128/6/70
f 128/6/71 129/5/71 131/9/71 130/10/71
f 130/10/72 131/9/72 133/13/72 132/14/72
f 132/14/73 133/13/73 135/17/73 134/18/73
f 134/18/74 135/17/74 137/21/74 136/22/74
f 136/22/75 137/21/75 139/25/75 138/26/75
f 138/26/76 139/25/76 141/29/76 140/30/76
f 140/30/77 141/29/77 127/33/77 126/34/77
f 126/39/78 128/42/78 130/46/78 132/50/78 134/54/78 136/58/78 138/62/78 140/64/78
f 142/1/70 143/2/70 145/5/70 144/6/70
f 144/6/71 145/5/71 147/9/71 146/10/71
f 146/10/72 147/9/72 149/13/72 148/14/72
f 148/14/73 149/13/73 151/17/73 150/18/73
f 150/18/74 151/17/74 153/21/74 152/22/74
f 152/22/75 153/21/75 155/25/75 154/26/75
f 154/26/76 155/25/76 157/29/76 156/30/76
f 156/30/77 157/29/77 143/33/77 142/34/77
f 142/39/78 144/42/78 146/46/78 148/50/78 150/54/78 152/58/78 154/62/78 156/64/78
usemtl Material.006
f 97/68/35 95/69/35 109/70/35 107/71/35 105/72/35 103/73/35 101/74/35 99/75/35
f 113/68/35 111/69/35 125/70/35 123/71/35 121/72/35 119/73/35 117/74/35 115/75/35
f 129/68/35 127/69/35 141/70/35 139/71/35 137/72/35 135/73/35 133/74/35 131/75/35
f 145/68/35 143/69/35 157/70/35 155/71/35 153/72/35 151/73/35 149/74/35 147/75/35
