# Blender 3.6.1
# www.blender.org
mtllib Missile Model.mtl
o Cylinder
v -0.000000 -0.400000 -0.100000
v -0.000000 0.400000 -0.100000
v 0.086603 -0.400000 -0.050000
v 0.086603 0.400000 -0.050000
v 0.086603 -0.400000 0.050000
v 0.086603 0.400000 0.050000
v -0.000000 -0.400000 0.100000
v -0.000000 0.400000 0.100000
v -0.086603 -0.400000 0.050000
v -0.086603 0.400000 0.050000
v -0.086603 -0.400000 -0.050000
v -0.086603 0.400000 -0.050000
v -0.000000 0.500000 0.000000
v -0.000000 0.470587 -0.066036
v 0.057189 0.470587 -0.033018
v 0.057189 0.470587 0.033018
v -0.000000 0.470587 0.066036
v -0.057189 0.470587 0.033018
v -0.057189 0.470587 -0.033018
v -0.052800 -0.400000 -0.052800
v -0.048000 -0.440000 -0.048000
v -0.052800 -0.400000 0.052800
v -0.048000 -0.440000 0.048000
v 0.052800 -0.400000 -0.052800
v 0.048000 -0.440000 -0.048000
v 0.052800 -0.400000 0.052800
v 0.048000 -0.440000 0.048000
v 0.000000 -0.440000 0.040000
v 0.000000 -0.600000 0.080000
v 0.028284 -0.440000 0.028284
v 0.056569 -0.600000 0.056568
v 0.040000 -0.440000 -0.000000
v 0.080000 -0.600000 -0.000000
v 0.028284 -0.440000 -0.028284
v 0.056569 -0.600000 -0.056569
v -0.000000 -0.440000 -0.040000
v -0.000000 -0.600000 -0.080000
v -0.028284 -0.440000 -0.028284
v -0.056569 -0.600000 -0.056569
v -0.040000 -0.440000 -0.000000
v -0.080000 -0.600000 -0.000000
v -0.028284 -0.440000 0.028284
v -0.056569 -0.600000 0.056568
v 0.000000 -0.520000 0.072000
v 0.050912 -0.520000 0.050912
v 0.072000 -0.520000 -0.000000
v 0.050912 -0.520000 -0.050912
v -0.000000 -0.520000 -0.072000
v -0.050912 -0.520000 -0.050912
v -0.072000 -0.520000 -0.000000
v -0.050912 -0.520000 0.050912
vn -0.0000 -0.6100 -0.7924
vn -0.0000 0.2084 -0.9780
vn 0.8470 0.2084 -0.4890
vn 0.6862 -0.6100 -0.3962
vn 0.8470 0.2084 0.4890
vn 0.6862 -0.6100 0.3962
vn -0.0000 0.2084 0.9780
vn -0.0000 -0.6100 0.7924
vn -0.8470 0.2084 0.4890
vn -0.6862 -0.6100 0.3962
vn -0.8470 0.2084 -0.4890
vn -0.6862 -0.6100 -0.3962
vn -0.0000 0.6657 -0.7463
vn 0.6463 0.6657 -0.3731
vn -0.0000 1.0000 -0.0000
vn 0.6463 0.6657 0.3731
vn -0.0000 0.6657 0.7463
vn -0.6463 0.6657 0.3731
vn -0.6463 0.6657 -0.3731
vn -0.9929 -0.1191 -0.0000
vn -0.0000 -0.1191 0.9929
vn 0.9929 -0.1191 -0.0000
vn -0.0000 -0.1191 -0.9929
vn -0.0000 -1.0000 -0.0000
vn -0.0000 0.2303 0.9731
vn -0.0000 -0.5925 0.8056
vn 0.5696 -0.5925 0.5696
vn 0.6881 0.2303 0.6881
vn 0.8056 -0.5925 -0.0000
vn 0.9731 0.2303 -0.0000
vn 0.5696 -0.5925 -0.5696
vn 0.6881 0.2303 -0.6881
vn -0.0000 -0.5925 -0.8056
vn -0.0000 0.2303 -0.9731
vn -0.5696 -0.5925 -0.5696
vn -0.6881 0.2303 -0.6881
vn -0.8056 -0.5925 -0.0000
vn -0.9731 0.2303 -0.0000
vn -0.5696 -0.5925 0.5696
vn -0.6881 0.2303 0.6881
vn -0.0000 0.7665 0.6423
vn 0.4541 0.7665 0.4541
vn 0.6423 0.7665 -0.0000
vn 0.4541 0.7665 -0.4541
vn -0.0000 0.7665 -0.6423
vn -0.4541 0.7665 -0.4541
vn -0.6423 0.7665 -0.0000
vn -0.4541 0.7665 0.4541
vt 1.000000 0.500000
vt 1.000000 1.000000
vt 0.833333 1.000000
vt 0.833333 0.500000
vt 0.666667 1.000000
vt 0.666667 0.500000
vt 0.500000 1.000000
vt 0.500000 0.500000
vt 0.333333 1.000000
vt 0.333333 0.500000
vt 0.166667 1.000000
vt 0.166667 0.500000
vt -0.000000 1.000000
vt -0.000000 0.500000
vt 0.750000 0.490000
vt 0.957846 0.370000
vt 0.957846 0.130000
vt 0.750000 0.010000
vt 0.542154 0.130000
vt 0.542154 0.370000
vt 0.833333 1.000000
vt 0.971697 1.000000
vt 0.861636 1.000000
vt 0.422550 0.390378
vt 0.285296 0.469622
vt 0.216830 0.230849
vt 0.805030 1.000000
vt 0.694970 1.000000
vt 0.457846 0.170756
vt 0.457846 0.329244
vt 0.216830 0.269151
vt 0.638364 1.000000
vt 0.528303 1.000000
vt 0.285296 0.030378
vt 0.422550 0.109622
vt 0.250000 0.288302
vt 0.500000 1.000000
vt 0.471697 1.000000
vt 0.361636 1.000000
vt 0.077450 0.109622
vt 0.214704 0.030378
vt 0.283170 0.269151
vt 0.305030 1.000000
vt 0.194970 1.000000
vt 0.042154 0.329244
vt 0.042154 0.170756
vt 0.283170 0.230849
vt -0.000000 1.000000
vt 0.138364 1.000000
vt 0.028303 1.000000
vt 0.214704 0.469622
vt 0.077450 0.390378
vt 0.250000 0.211698
vt 0.375000 0.000000
vt 0.625000 0.000000
vt 0.625000 0.250000
vt 0.375000 0.250000
vt 0.625000 0.500000
vt 0.375000 0.500000
vt 0.625000 0.750000
vt 0.375000 0.750000
vt 0.625000 1.000000
vt 0.375000 1.000000
vt 0.125000 0.500000
vt 0.125000 0.750000
vt 0.875000 0.500000
vt 0.875000 0.750000
vt 1.000000 0.750000
vt 0.875000 1.000000
vt 0.750000 1.000000
vt 0.750000 0.750000
vt 0.500000 1.000000
vt 0.500000 0.750000
vt 0.250000 1.000000
vt 0.250000 0.750000
vt 0.419706 0.419706
vt 0.250000 0.490000
vt 0.080294 0.419706
vt 0.010000 0.250000
vt 0.080294 0.080294
vt 0.250000 0.010000
vt 0.419706 0.080294
vt 0.490000 0.250000
vt 0.125000 1.000000
vt 0.000000 1.000000
vt 0.000000 0.750000
vt 0.919706 0.419706
vt 0.990000 0.250000
vt 0.919706 0.080294
vt 0.580294 0.080294
vt 0.510000 0.250000
vt 0.580294 0.419706
vt 0.000000 0.500000
vt 0.250000 0.500000
vt 0.500000 0.500000
vt 0.750000 0.500000
s 1
usemtl Bare_Metal
f 1/1/1 2/2/2 4/3/3 3/4/4
f 3/4/4 4/3/3 6/5/5 5/6/6
f 5/6/6 6/5/5 8/7/7 7/8/8
f 7/8/8 8/7/7 10/9/9 9/10/10
f 9/10/10 10/9/9 12/11/11 11/12/12
f 11/12/12 12/11/11 2/13/2 1/14/1
f 1/15/1 3/16/4 5/17/6 7/18/8 9/19/10 11/20/12
f 4/21/3 2/2/2 14/22/13 15/23/14
f 6/5/5 4/21/3 15/27/14 16/28/16
f 8/7/7 6/5/5 16/32/16 17/33/17
f 10/9/9 8/37/7 17/38/17 18/39/18
f 12/11/11 10/9/9 18/43/18 19/44/19
f 2/48/2 12/11/11 19/49/19 14/50/13
f 44/68/25 29/2/26 31/69/27 45/67/28
f 45/67/28 31/69/27 33/70/29 46/71/30
f 46/71/30 33/70/29 35/62/31 47/60/32
f 47/60/32 35/62/31 37/72/33 48/73/34
f 48/73/34 37/72/33 39/63/35 49/61/36
f 49/61/36 39/63/35 41/74/37 50/75/38
f 50/75/38 41/74/37 43/84/39 51/65/40
f 51/65/40 43/84/39 29/85/26 44/86/25
f 28/15/41 30/87/42 32/88/43 34/89/44 36/18/45 38/90/46 40/91/47 42/92/48
f 42/64/48 51/65/40 44/86/25 28/93/41
f 40/94/47 50/75/38 51/65/40 42/64/48
f 38/59/46 49/61/36 50/75/38 40/94/47
f 36/95/45 48/73/34 49/61/36 38/59/46
f 34/58/44 47/60/32 48/73/34 36/95/45
f 32/96/43 46/71/30 47/60/32 34/58/44
f 30/66/42 45/67/28 46/71/30 32/96/43
f 28/1/41 44/68/25 45/67/28 30/66/42
usemtl Yellow
f 15/24/14 14/25/13 13/26/15
f 16/29/16 15/30/14 13/31/15
f 17/34/17 16/35/16 13/36/15
f 18/40/18 17/41/17 13/42/15
f 19/45/19 18/46/18 13/47/15
f 14/51/13 19/52/19 13/53/15
s 0
f 20/54/20 21/55/20 23/56/20 22/57/20
f 22/57/21 23/56/21 27/58/21 26/59/21
f 26/59/22 27/58/22 25/60/22 24/61/22
f 24/61/23 25/60/23 21/62/23 20/63/23
f 22/64/15 26/59/15 24/61/15 20/65/15
f 27/58/24 23/66/24 21/67/24 25/60/24
s 1
usemtl VOID
f 31/76/27 29/77/26 43/78/39 41/79/37 39/80/35 37/81/33 35/82/31 33/83/29
