# Blender 3.6.1
# www.blender.org
mtllib Railgun barrel.mtl
o Cylinder.002
v 0.500000 1.000000 -0.200000
v 0.500000 1.000000 0.200000
v 0.759807 0.900000 -0.200000
v 0.759807 0.900000 0.200000
v 0.759807 0.500000 -0.200000
v 0.759807 0.500000 0.200000
v 0.500000 0.400000 -0.200000
v 0.500000 0.400000 0.200000
v 0.240192 0.550000 -0.200000
v 0.240192 0.550000 0.200000
v 0.240192 0.850000 -0.200000
v 0.240192 0.850000 0.200000
v 0.500000 0.700000 -0.150000
v 3.000000 0.700000 -0.075000
v 0.500000 0.500000 0.000000
v 3.000000 0.600000 0.000000
v 0.500000 0.700000 0.150000
v 3.000000 0.700000 0.075000
v 0.500000 0.900000 0.000000
v 3.000000 0.800000 0.000000
v 3.100000 0.700000 -0.100000
v 3.100000 0.550000 0.000000
v 3.100000 0.700000 0.100000
v 3.100000 0.850000 0.000000
v 3.400000 0.700000 -0.100000
v 3.400000 0.550000 0.000000
v 3.400000 0.700000 0.100000
v 3.400000 0.850000 0.000000
vn -0.0611 0.7808 -0.6218
vn -0.0611 0.7808 0.6218
vn 0.6600 0.4532 0.5992
vn 0.6600 0.4532 -0.5992
vn 0.6600 -0.4532 0.5992
vn 0.6600 -0.4532 -0.5992
vn -0.0611 -0.7808 0.6218
vn -0.0611 -0.7808 -0.6218
vn -0.6862 -0.3962 0.6100
vn -0.6862 -0.3962 -0.6100
vn -0.0000 -0.0000 1.0000
vn -0.6862 0.3962 0.6100
vn -0.6862 0.3962 -0.6100
vn -0.0000 -0.0000 -1.0000
vn 0.0240 -0.5998 -0.7998
vn 0.0240 -0.5998 0.7998
vn -0.2387 0.5569 0.7956
vn 0.0240 0.5998 0.7998
vn 0.0240 0.5998 -0.7998
vn -1.0000 -0.0000 -0.0000
vn -0.0000 0.5547 -0.8321
vn -0.2387 0.5569 -0.7956
vn -0.2387 -0.5569 0.7956
vn -0.2387 -0.5569 -0.7956
vn 1.0000 -0.0000 -0.0000
vn -0.0000 -0.5547 0.8321
vn -0.0000 0.5547 0.8321
vn -0.0000 -0.5547 -0.8321
vt 1.000000 0.500000
vt 1.000000 1.000000
vt 0.833333 1.000000
vt 0.833333 0.500000
vt 0.666667 1.000000
vt 0.666667 0.500000
vt 0.500000 1.000000
vt 0.500000 0.500000
vt 0.333333 1.000000
vt 0.333333 0.500000
vt 0.457846 0.370000
vt 0.250000 0.490000
vt 0.042154 0.370000
vt 0.042154 0.130000
vt 0.250000 0.010000
vt 0.457846 0.130000
vt 0.166667 1.000000
vt 0.166667 0.500000
vt -0.000000 1.000000
vt -0.000000 0.500000
vt 0.750000 0.490000
vt 0.957846 0.370000
vt 0.957846 0.130000
vt 0.750000 0.010000
vt 0.542154 0.130000
vt 0.542154 0.370000
vt 0.750000 1.000000
vt 0.750000 0.500000
vt 0.500000 1.000000
vt 0.500000 0.500000
vt 0.250000 1.000000
vt 0.250000 0.500000
vt 0.000000 1.000000
vt 0.000000 0.500000
vt 0.990000 0.250000
vt 0.510000 0.250000
vt 0.490000 0.250000
vt 0.010000 0.250000
s 1
usemtl Grey_Metal
f 1/1/1 2/2/2 4/3/3 3/4/4
f 3/4/4 4/3/3 6/5/5 5/6/6
f 5/6/6 6/5/5 8/7/7 7/8/8
f 7/8/8 8/7/7 10/9/9 9/10/10
s 0
f 4/11/11 2/12/11 12/13/11 10/14/11 8/15/11 6/16/11
s 1
f 9/10/10 10/9/9 12/17/12 11/18/13
f 11/18/13 12/17/12 2/19/2 1/20/1
s 0
f 1/21/14 3/22/14 5/23/14 7/24/14 9/25/14 11/26/14
usemtl Barrel.001
f 13/1/15 14/2/15 16/27/15 15/28/15
f 15/28/16 16/27/16 18/29/16 17/30/16
f 20/31/17 18/29/17 23/29/17 24/31/17
f 17/30/18 18/29/18 20/31/18 19/32/18
f 19/32/19 20/31/19 14/33/19 13/34/19
f 13/21/20 15/35/20 17/24/20 19/36/20
f 21/33/21 24/31/21 28/31/21 25/33/21
f 14/33/22 20/31/22 24/31/22 21/33/22
f 18/29/23 16/27/23 22/27/23 23/29/23
f 16/27/24 14/2/24 21/2/24 22/27/24
f 23/29/26 22/27/26 26/27/26 27/29/26
f 24/31/27 23/29/27 27/29/27 28/31/27
f 22/27/28 21/2/28 25/2/28 26/27/28
usemtl VOID
f 26/37/25 25/12/25 28/38/25 27/15/25
